<svg xmlns="http://www.w3.org/2000/svg" xmlns:xlink="http://www.w3.org/1999/xlink" width="30" height="29" viewBox="0 0 30 29">
  <defs>
    <clipPath id="clip-path">
      <rect id="Прямоугольник_7" data-name="Прямоугольник 7" width="30" height="29" transform="translate(-0.438 0.391)" fill="none"/>
    </clipPath>
  </defs>
  <g id="клик_палец" data-name="клик палец" transform="translate(0.438 -0.391)" clip-path="url(#clip-path)">
    <path id="Path_1470" data-name="Path 1470" d="M5.585,9.715c-.2-.681-.394-1.362-.539-2.016A3.239,3.239,0,1,1,9.829,5.635a15.82,15.82,0,0,1,.778,2.227A4.915,4.915,0,1,0,5.585,9.713Z" transform="translate(1.674 0.001)" fill="#c3c3c3"/>
    <path id="Path_1471" data-name="Path 1471" d="M2.218,19.186c1.214-1.311,2.578-.8,4.4-.52,1.567.241,3.109-.2,3.006-1.044a19.608,19.608,0,0,0-.911-3.75C8.3,12.465,7.512,9.92,6.8,7.491c-.957-3.257-1.232-4.766.041-5.142C8.212,1.949,9,3.9,9.716,6.613,10.53,9.7,10.955,11.06,11.2,10.988c.422-.117-.156-1.441.95-1.766,1.382-.4,1.649.679,2.036.57s.255-1.211,1.357-1.532,1.664,1.043,2.12.908.442-.626,1.125-.82,3.258.949,4.73,5.977c1.848,6.328-.234,7.5.4,9.645l-8.251,3.137c-.668-1.607-2.736-1.725-4.57-2.749S8,21.3,3.193,21.4C1.386,21.434,1.472,20,2.218,19.186Z" transform="translate(1.638 2.189)" fill="#999"/>
  </g>
</svg>
