<svg xmlns="http://www.w3.org/2000/svg" xmlns:xlink="http://www.w3.org/1999/xlink" viewBox="0 0 12.27 16.65">
  <defs>
    <style>
      .cls-1, .cls-2 {
        fill: none;
      }

      .cls-2 {
        stroke: #6f4e2f;
        stroke-miterlimit: 10;
        stroke-width: 2px;
      }

      .cls-3 {
        fill: #feac00;
      }

      .cls-4 {
        isolation: isolate;
      }

      .cls-5 {
        clip-path: url(#clip-path);
      }

      .cls-6 {
        fill: #434241;
      }

      .cls-7 {
        fill: #41403f;
      }

      .cls-8 {
        fill: #3f3e3d;
      }

      .cls-9 {
        fill: #3c3b3b;
      }

      .cls-10 {
        fill: #3a3939;
      }

      .cls-11 {
        clip-path: url(#clip-path-2);
      }

      .cls-12 {
        fill: #4a4948;
      }

      .cls-13 {
        fill: #484646;
      }

      .cls-14 {
        fill: #383737;
      }

      .cls-15 {
        clip-path: url(#clip-path-3);
      }

      .cls-16 {
        fill: #3c3a3a;
      }

      .cls-17 {
        clip-path: url(#clip-path-4);
      }

      .cls-18 {
        fill: #454444;
      }

      .cls-19 {
        fill: #9b5f00;
      }

      .cls-20 {
        clip-path: url(#clip-path-5);
      }
    </style>
    <clipPath id="clip-path">
      <path class="cls-1" d="M7,14.34l0-.05a3.75,3.75,0,0,0,1.68-.86l0,.06A3.78,3.78,0,0,1,7,14.34Z"/>
    </clipPath>
    <clipPath id="clip-path-2">
      <path class="cls-1" d="M4,13.76l0,0a3.55,3.55,0,0,0,1.8.66l0,.06A3.61,3.61,0,0,1,4,13.76Z"/>
    </clipPath>
    <clipPath id="clip-path-3">
      <path class="cls-1" d="M9.28,8.07l0,.06a3.82,3.82,0,0,1,.75,2.25,4.07,4.07,0,0,1-.62,2.21l0-.05A4.11,4.11,0,0,0,10,10.32,3.88,3.88,0,0,0,9.28,8.07Z"/>
    </clipPath>
    <clipPath id="clip-path-4">
      <path class="cls-1" d="M10,7.49l0,0A4.55,4.55,0,0,0,6.2,5.71l0,0A4.54,4.54,0,0,1,10,7.49Z"/>
    </clipPath>
    <clipPath id="clip-path-5">
      <path class="cls-1" d="M2.47,13.54l0,0A4.77,4.77,0,0,1,1.5,10.7a5,5,0,0,1,4.66-5l0,0a5,5,0,0,0-4.66,5A4.74,4.74,0,0,0,2.47,13.54Z"/>
    </clipPath>
  </defs>
  <title>2Ресурс 2</title>
  <g id="Слой_2" data-name="Слой 2">
    <g id="dog_smile" data-name="dog smile">
      <g>
        <g id="Group_1266" data-name="Group 1266">
          <line id="Line_310" data-name="Line 310" class="cls-2" x1="6.13" y1="0.03" x2="6.29" y2="4.55"/>
          <circle id="Ellipse_862" data-name="Ellipse 862" class="cls-3" cx="6.13" cy="10.52" r="6.13"/>
        </g>
        <g class="cls-4">
          <g class="cls-4">
            <g class="cls-5">
              <g class="cls-4">
                <path class="cls-6" d="M7,14.34l0-.05.2,0,0,0-.2.05"/>
                <path class="cls-7" d="M7.19,14.29l0,0a3.57,3.57,0,0,0,.46-.16l0,.05a2.51,2.51,0,0,1-.46.16"/>
                <path class="cls-8" d="M7.65,14.13l0-.05a4,4,0,0,0,.46-.23l0,.05a2.73,2.73,0,0,1-.45.23"/>
                <path class="cls-9" d="M8.1,13.9l0-.05a5.74,5.74,0,0,0,.5-.36l0,0a4.67,4.67,0,0,1-.51.36"/>
                <path class="cls-10" d="M8.61,13.54l0,0,.06-.06,0,.06-.06,0"/>
              </g>
            </g>
          </g>
          <g class="cls-4">
            <g class="cls-11">
              <g class="cls-4">
                <path class="cls-12" d="M4,13.76l0,0a3.69,3.69,0,0,0,1.45.62l0,.05A3.49,3.49,0,0,1,4,13.76"/>
                <path class="cls-13" d="M5.48,14.38l0-.05.35,0,0,.06-.35,0"/>
              </g>
            </g>
          </g>
          <polygon class="cls-14" points="5.83 14.43 5.79 14.38 5.76 11.99 5.8 12.04 5.83 14.43"/>
          <polygon class="cls-12" points="6.94 10.43 6.9 10.38 9.41 12.54 9.45 12.59 6.94 10.43"/>
          <g class="cls-4">
            <g class="cls-15">
              <g class="cls-4">
                <path class="cls-10" d="M9.45,12.59l0-.05A4.11,4.11,0,0,0,10,10.32a3.88,3.88,0,0,0-.76-2.25l0,.06a3.82,3.82,0,0,1,.75,2.25,4.07,4.07,0,0,1-.62,2.21"/>
              </g>
            </g>
          </g>
          <polygon class="cls-16" points="3.21 12.95 3.17 12.9 5.74 10.41 5.78 10.46 3.21 12.95"/>
          <polygon class="cls-14" points="5.78 10.46 5.74 10.41 5.69 6.65 5.73 6.7 5.78 10.46"/>
          <g class="cls-4">
            <g class="cls-17">
              <g class="cls-4">
                <path class="cls-18" d="M6.2,5.71l0,0h.23l0,0H6.2"/>
                <path class="cls-13" d="M6.43,5.71l0,0a4.39,4.39,0,0,1,.82.07l0,.06a4.47,4.47,0,0,0-.82-.08"/>
                <path class="cls-12" d="M7.25,5.79l0-.06a4.63,4.63,0,0,1,2.6,1.49l0,.06A4.46,4.46,0,0,0,7.25,5.79"/>
                <path class="cls-13" d="M9.84,7.28l0-.06.21.27,0,0a2.75,2.75,0,0,0-.22-.26"/>
              </g>
            </g>
          </g>
          <path class="cls-19" d="M6.2,5.71A4.61,4.61,0,0,1,11,10.34a4.94,4.94,0,0,1-.84,2.84,4.82,4.82,0,0,1-.77.91,4.88,4.88,0,0,1-3.05,1.29,4.57,4.57,0,0,1-3.81-1.77,4.75,4.75,0,0,1-1-2.86A5,5,0,0,1,6.2,5.71Zm-.42,4.75,0-3.76a4,4,0,0,0-3.27,4A3.75,3.75,0,0,0,3.21,13l2.57-2.49m3.67,2.13a4.07,4.07,0,0,0,.62-2.21,3.73,3.73,0,0,0-3.18-3.7l.05,3.75,2.51,2.16M5.83,14.43,5.8,12,4,13.76a3.61,3.61,0,0,0,1.8.67M7,14.34a3.78,3.78,0,0,0,1.68-.85L7,12l0,2.33"/>
          <g class="cls-4">
            <g class="cls-20">
              <g class="cls-4">
                <path class="cls-10" d="M2.47,13.54l0,0A4.77,4.77,0,0,1,1.5,10.7,5,5,0,0,1,3.28,6.8l0,0a5,5,0,0,0-1.78,3.9,4.74,4.74,0,0,0,.93,2.79"/>
                <path class="cls-9" d="M3.32,6.85l0,0a6,6,0,0,1,.65-.47l0,0a6,6,0,0,0-.65.47"/>
                <path class="cls-8" d="M4,6.38l0,0A6.54,6.54,0,0,1,4.52,6l0,.06A4.6,4.6,0,0,0,4,6.38"/>
                <path class="cls-7" d="M4.56,6.09l0-.06a5.66,5.66,0,0,1,.58-.2l0,0a5.71,5.71,0,0,0-.58.21"/>
                <path class="cls-6" d="M5.14,5.88l0,0a4.13,4.13,0,0,1,.61-.13l0,0a6,6,0,0,0-.61.13"/>
                <path class="cls-18" d="M5.75,5.75l0,0,.45,0,0,0-.45,0"/>
              </g>
            </g>
          </g>
        </g>
      </g>
    </g>
  </g>
</svg>
