<svg xmlns="http://www.w3.org/2000/svg" width="97.935" height="159.467" viewBox="0 0 97.935 159.467"><g transform="translate(2.244 1.47)"><path d="M115.753,100.524a8.957,8.957,0,0,0-4.788-5.017,7.862,7.862,0,0,0-6.766,0c-4.805,1.855-5.141,3.622-6.519,7.067s-1.007,10.088-1.961,10.441c-.583.212.548-5.176-3.2-6.943a7.915,7.915,0,0,0-8.6.742c-2.473,1.678-2.844,5.3-4.629,5.3-1.131,0-.618-1.449-2.579-2.95-2.42-1.855-4.1-3.2-6.572-3.533a18.85,18.85,0,0,0-8.18.76c-3.657,1.219-5.3,4.063-6.095,3.692-.459-.212-.23-1.767-.212-2.862a29.379,29.379,0,0,0-1.519-8.745c-1.4-4.858-2.1-9.2-7.738-11.042A11.819,11.819,0,0,0,34.258,90.26,13.762,13.762,0,0,0,29.7,103.139c1.06,6.572,3.533,9.77,3.851,16.129,0,.989.936,2.579-1.767,9.487a50.067,50.067,0,0,0-2.827,16.8c.76,5.583,3.834,6.2,9.522,13.214a11.324,11.324,0,0,1,2.509,8.5h0c-.9,7.526-2.6,16.942-9.558,40.951-1.254,4.381-2.738,9.345-2.738,9.345-1.449,4.964-2.65,8.992-3.41,11.519L87.77,243.357a211.433,211.433,0,0,0,4.823-26.2c1.519-12.79,3.745-25.493,5.494-38.248.53-3.834.212-8.18,3.657-12h0a19.68,19.68,0,0,0,2.155-2.95c.23-.389.512-.9.813-1.5h0a32.877,32.877,0,0,0,3.622-17.013,37.1,37.1,0,0,1-.3-10.777c.389-2.579.83-3.109,3.215-9.911a130.731,130.731,0,0,0,4.452-15.546C116.584,105.382,116.866,103.1,115.753,100.524Z" transform="translate(-20.789 -88.279)" fill="#d08a5a"/><path d="M115.753,100.524a8.957,8.957,0,0,0-4.788-5.017,7.862,7.862,0,0,0-6.766,0c-4.805,1.855-5.141,3.622-6.519,7.067s-1.007,10.088-1.961,10.441c-.583.212.548-5.176-3.2-6.943a7.915,7.915,0,0,0-8.6.742c-2.473,1.678-2.844,5.3-4.629,5.3-1.131,0-.618-1.449-2.579-2.95-2.42-1.855-4.1-3.2-6.572-3.533a18.85,18.85,0,0,0-8.18.76c-3.657,1.219-5.3,4.063-6.095,3.692-.459-.212-.23-1.767-.212-2.862a29.379,29.379,0,0,0-1.519-8.745c-1.4-4.858-2.1-9.2-7.738-11.042A11.819,11.819,0,0,0,34.258,90.26,13.762,13.762,0,0,0,29.7,103.139c1.06,6.572,3.533,9.77,3.851,16.129,0,.989.936,2.579-1.767,9.487a50.067,50.067,0,0,0-2.827,16.8c.76,5.583,3.834,6.2,9.522,13.214a11.324,11.324,0,0,1,2.509,8.5h0c-.9,7.526-2.6,16.942-9.558,40.951-1.254,4.381-2.738,9.345-2.738,9.345-1.449,4.964-2.65,8.992-3.41,11.519L87.77,243.357a211.433,211.433,0,0,0,4.823-26.2c1.519-12.79,3.745-25.493,5.494-38.248.53-3.834.212-8.18,3.657-12h0a19.68,19.68,0,0,0,2.155-2.95c.23-.389.512-.9.813-1.5h0a32.877,32.877,0,0,0,3.622-17.013,37.1,37.1,0,0,1-.3-10.777c.389-2.579.83-3.109,3.215-9.911a130.731,130.731,0,0,0,4.452-15.546C116.584,105.382,116.866,103.1,115.753,100.524Z" transform="translate(-24.789 -86.279)" fill="#ffdca2"/><g transform="translate(12.813 35.328)" opacity="0.73"><path d="M85.3,119.86a8.642,8.642,0,0,0,.742.724,24.38,24.38,0,0,1,6.749,8.6c.371.724.088,1.166-.689,1.36a18.178,18.178,0,0,1-7.173.23,9.658,9.658,0,0,1-1.873-.318c-.618-.124-.83.124-.689.671a19.1,19.1,0,0,1-.618,10.105c-.265.989-.671,1.219-1.572.813a17.331,17.331,0,0,1-8.286-6.66c-.389-.636-.795-.654-1.131,0a12.19,12.19,0,0,0-.495,1.767c0,.265-.159.707-.318.724a1.484,1.484,0,0,1-.866-.247,18.014,18.014,0,0,0-2.173-1.29c-.883-.371-1.184-.106-1.131.8a19.008,19.008,0,0,1-.742,7.084,52.112,52.112,0,0,1-2.049,4.947c-.318.707-.866.848-1.519.318a21.464,21.464,0,0,1-6.042-6.448,28.443,28.443,0,0,1-1.166-2.95c-.23-.6-.459-.777-1.06-.265a28.443,28.443,0,0,1-12.9,6.272c-.707.159-1.449.23-2.173.318s-1.307-.23-1.025-1.2c.76-2.544,1.555-5.088,2.438-7.579a32.553,32.553,0,0,1,1.767-3.834c.371-.83.247-1.06-.689-1.042A22.966,22.966,0,0,1,29.388,129.4c-.795-.442-.777-.989-.177-1.555a30.863,30.863,0,0,1,9.823-7.067c.689-.3.989-.689.512-1.343a22.076,22.076,0,0,0-1.926-2.3c-.6-.583-.866-1.025,0-1.661a5.688,5.688,0,0,0,1.643-3.533,9.469,9.469,0,0,1,1.926-4.823,7.79,7.79,0,0,1,4.417-2.35A3.728,3.728,0,0,0,47.249,104a22.12,22.12,0,0,0,3.18-2.968A7.7,7.7,0,0,0,51.577,98.4c.283-.883.548-1.06,1.307-.53,2.526,1.767,5.512,1.767,8.445,1.89a1.625,1.625,0,0,0,1.042-.477,9.54,9.54,0,0,1,13.108,0c.919.83,1.767,1.767,2.685,2.579a4.116,4.116,0,0,0,3.41,1.272c.3,0,.813,0,.883.265a1.166,1.166,0,0,1-.23.936,5.3,5.3,0,0,0-.512,4.187c0,.618.583.459,1.025.336a17.666,17.666,0,0,1,8.533-.53A16.961,16.961,0,0,1,97,110.514c.76.442.848.936.336,1.661a18.55,18.55,0,0,1-10.724,7.314A5.407,5.407,0,0,0,85.3,119.86Zm-4.911,17.666c.336-.247.9-.442.972-.724.124-.583.212-1.449-.124-1.767a7.225,7.225,0,0,0-2.367-.936,6.483,6.483,0,0,0,1.555,3.533c-.194.583-.389,1.148.406,1.537A1.062,1.062,0,0,0,80.391,137.526Zm-3.268-.972a3.216,3.216,0,0,1-.442.848c-.618.583-.424.989.194,1.378s1.36.9,2.067,1.307a3.41,3.41,0,0,0,.883.23,3.127,3.127,0,0,0,0-.813c-.177-.707-.406-1.413-.636-2.1-.565-1.767-.565-1.767-2.085-.795a.8.8,0,0,1,.283-.583,1.943,1.943,0,0,0,.194-2.7c-.336-.583-.654-.671-1.148-.212l-.742.654-.194-.194a8.623,8.623,0,0,0,1.1-1.184c.141-.247,0-.636,0-.936a2.226,2.226,0,0,0-.866.159c-.777.459-1.484.989-2.244,1.466-1.113.671-1.113,1.625,0,2.244.159,0,.265.3.406.459a13.163,13.163,0,0,0,1.608,1.767s.848-.583,1.307-.883Zm-19.61-19.433a6.258,6.258,0,0,0-.671.088c-1.042.265-1.307,0-1.06-.954s.406-1.572.636-2.35a6.607,6.607,0,0,1,7.667-4.487c2.367.459,4.417,2.42,3.993,4.328s0,2.226,1.59,2.668c1.254.353,1.873.406,2.473-.76a7.506,7.506,0,0,0,.618-1.767,8.462,8.462,0,0,1,1.519-3.851.919.919,0,0,0-.141-.919c-1.449-1.166-2.915-2.314-4.417-3.392A11.838,11.838,0,0,0,67,104.19a2.314,2.314,0,0,0-3.039,1.2c-.318.548-.495,1.131-.795,1.678a.9.9,0,0,1-.583.442c-.177,0-.406-.247-.548-.442a2.4,2.4,0,0,1-.23-.53c-1.166-2.491-4.558-3.127-5.971-1.5a26.02,26.02,0,0,0-2.42,3.427,9.08,9.08,0,0,1-3.533,3.816.848.848,0,0,0-.336.777,62.46,62.46,0,0,0,1.767,6.219,5.477,5.477,0,0,0,1.767,2.314c1.166.883,3.074.618,3.533-.424a28.056,28.056,0,0,0,.9-3.975Zm19.769-1.166.9,1.378c.548-.424,1.378-.76,1.59-1.307a12.366,12.366,0,0,0,.777-3.834c0-2.014-.23-4.046-.177-6.06,0-1.078,0-1.908-1.272-2.067a1.432,1.432,0,0,1-.671-.389c-1.078-.954-2.191-1.873-3.2-2.9a8.639,8.639,0,0,0-10.6-1.643,5.585,5.585,0,0,0-.742.707l.83.53c.954.636,1.926,1.219,2.827,1.89.636.477,1.148,1.113,1.767,1.643,1.1.989,2.191,1.979,3.321,2.915a4.859,4.859,0,0,0,4.169,1.449,3.321,3.321,0,0,1,1.042.212,6.094,6.094,0,0,1-.689.936c-.742.76-1.572,1.466-2.3,2.261a.654.654,0,0,0,.283,1.166A3.533,3.533,0,0,1,77.282,115.955ZM49.634,118.8l.177-.088-.353-1.413c-.194-.724-.654-.813-1.131-.3a6.253,6.253,0,0,0-1.29,1.767,6.519,6.519,0,0,0,.548,5.918c.76,1.343,1.272,2.791,1.961,4.169a1.413,1.413,0,0,0,.883.495c.848.159,1.767.141,2.544.371s1.979.76,2.986,1.1a5.176,5.176,0,0,0,6.431-2.88c.194-.495.247-.883-.442-1.007a5.954,5.954,0,0,1-4.54-3.374c-.265-.53-.583-.636-1.2-.424a3.993,3.993,0,0,1-4.629-1.078,20.843,20.843,0,0,1-1.943-3.339Zm6.749,13.532a3.622,3.622,0,0,0,1.767,1.873,11.164,11.164,0,0,0,5.636.972,39.226,39.226,0,0,1,4.5.565c.3,0,.813,0,.919-.23a10.6,10.6,0,0,1,4.152-3.657,5.3,5.3,0,0,0,2.456-7.067c-.247-.689-.6-.8-1.148-.247s-1.343,1.449-2.049,2.138a7.067,7.067,0,0,1-8.286,1.767c-.512-.265-.76,0-1.007.424a5.954,5.954,0,0,1-4.187,3.215,20.188,20.188,0,0,1-2.756.159ZM47.8,113.376l.265-.141a.933.933,0,0,0-.159-.636c-.265-.618,0-.989.636-1.113a4.575,4.575,0,0,0,3.18-2.456,38.5,38.5,0,0,1,2.438-4.01,5.053,5.053,0,0,1,7.632-.477c.495.477.76.459,1.272,0a13.588,13.588,0,0,1,2.067-1.466c.247-.159.53-.283.795-.424-.212-.212-.389-.565-.636-.636a32.525,32.525,0,0,0-4.646-1.007A21.411,21.411,0,0,1,53.414,99.7a.883.883,0,0,0-.777.265,12.366,12.366,0,0,1-3.869,4.4,6.448,6.448,0,0,0-2.791,6.007,4.1,4.1,0,0,0,1.82,2.915ZM44.51,106.31a6.378,6.378,0,0,0-3.834,4.593,12.808,12.808,0,0,1-1.767,4.929,1.078,1.078,0,0,0,.124.936c.83,1.378,1.643,2.774,2.579,4.081a18.674,18.674,0,0,0,2.35,2.668c.318.3.972.283,1.466.424a6.817,6.817,0,0,0,0-1.343,6.1,6.1,0,0,1,2.155-6.643c.707-.583.6-.919,0-1.307a6.484,6.484,0,0,1-2.526-7.756.724.724,0,0,0,0-.6,1.71,1.71,0,0,0-.548-.071Zm13.833,13.179a4.734,4.734,0,0,0-.23.989,4.876,4.876,0,0,0,5.547,5.123,24.151,24.151,0,0,0,3.145-.813c1.1-.283,2.191-.636,3.3-.813.777-.106.813-.389.671-1.025a20.779,20.779,0,0,1-.477-3.145,2.721,2.721,0,0,0-2.6-2.756,1.272,1.272,0,0,0-1.643.954,4.311,4.311,0,0,1-4.841,2.774,13.126,13.126,0,0,1-2.88-1.29Zm18.073-3.074.23-.159A22.966,22.966,0,0,0,75,114.171c-.53-.512-.9-.406-1.184.389a5.954,5.954,0,0,1-1.466,2.685,2.138,2.138,0,0,0-.883,2.385c.141.618,0,1.29.177,1.908a10.6,10.6,0,0,0,.707,1.89c.371.813.83.636,1.466.159,1.007-.742,2.12-1.325,3.145-2.032a1.1,1.1,0,0,0,.495-.848c-.3-1.4-.689-2.809-1.042-4.24Zm-18.779-1.5a3.359,3.359,0,0,0,.53,0,4.7,4.7,0,0,1,5.3,1.29,1.113,1.113,0,0,0,.777.283,3.781,3.781,0,0,0,2.562-2.173,2.4,2.4,0,0,0-1.078-2.7,5.3,5.3,0,0,0-8.109,2.721,2.662,2.662,0,0,0,.018.636Zm-6.342,17.878a1.394,1.394,0,0,0-.389.141c-1.131,1.254-2.244,2.491-3.339,3.763a1.29,1.29,0,0,0-.283.795v3.533c0,.777.459.972,1.131.53,1.307-.848,2.544-1.767,3.816-2.668a1.237,1.237,0,0,0,.424-1.767c-.477-1.184-.813-2.42-1.2-3.639a3.192,3.192,0,0,0-.159-.636Zm-2.933,2a2.333,2.333,0,0,0-.6-.283c-1.519-.23-3.021-.477-4.54-.654a.83.83,0,0,0-.689.406c-.707,1.449-1.4,2.933-2.032,4.434-.194.424,0,.724.53.742,1.89.088,3.692,0,4.788-1.767a4.2,4.2,0,0,1,.618-.636c.618-.724,1.237-1.431,1.926-2.191Zm3.357-4.452a5.637,5.637,0,0,0-1.767.212c-.919.442-1.449.406-1.767-.618s-2.067-1.307-2.491-.742c-.83,1.131-1.59,2.314-2.314,3.533,0,.141.141.689.283.707a21.87,21.87,0,0,0,5.3.371c.83-.106,1.5-1.413,2.244-2.173a3.712,3.712,0,0,0,.424-.53,3.091,3.091,0,0,0,.088-.707Zm-7.7-4.328a8.23,8.23,0,0,0-.477-.866c-.919-1.113-1.767-2.244-2.791-3.321a1.007,1.007,0,0,0-.936-.194c-1.29.6-2.562,1.272-3.781,1.979a1.113,1.113,0,0,0-.3.848c.972.689,1.926,1.767,3.021,1.873a26.268,26.268,0,0,0,5.265-.265ZM39.4,144.8c.265,0,.353.106.442,0a19.787,19.787,0,0,0,6.7-2.279,1.025,1.025,0,0,0,.353-.813,20.083,20.083,0,0,0-.283-2.685,4.4,4.4,0,0,0-.247-.777,3.215,3.215,0,0,0-.76.671q-2.791,2.6-5.53,5.3a5.44,5.44,0,0,0-.671.636Zm1.29-17.472-.194-.3a24.265,24.265,0,0,1-2.95.318,2.915,2.915,0,0,0-2.9,2.085c-.283.618-.177.989.495,1.166,1.025.265,2.049.53,3.092.742a.954.954,0,0,0,.8-.23c.6-1.2,1.113-2.473,1.661-3.728Zm14.8,12.79h0a1.8,1.8,0,0,0,.212.636c.583,1.625,1.025,1.767,2.138.742a2.773,2.773,0,0,1,.777-.442,1.2,1.2,0,0,0,.83-1.537c-.194-.883-.336-1.767-.477-2.668,0-.53-.318-.742-.883-.406a24.849,24.849,0,0,0-2.314,1.36,2,2,0,0,0-.548,1.184,3.711,3.711,0,0,0,.265,1.184Zm28.814-25.51c-.371.106-.654.177-.936.283-1.06.353-1.113.53-.336,1.254s1.237,1.06,1.767,1.643a1.767,1.767,0,0,0,1.767.442c.813-.283,1.643-.583,2.438-.9s.636-.618.088-.972a24.835,24.835,0,0,1-2.138-1.413,2.191,2.191,0,0,0-2.65-.283Zm-5.3,8.462a2.086,2.086,0,0,0-.141.689c.106,1.1.212,2.173.389,3.251a1.272,1.272,0,0,0,.53.848,13.6,13.6,0,0,0,2.279.972c.177,0,.689-.247.689-.371a9.222,9.222,0,0,0-.265-3.781c-.318-.724-1.767-.972-2.685-1.431h-.177ZM87,113.023c1.767.124,2.367-1.307,2.968-2.721a1.219,1.219,0,0,0-.247-.972,20.406,20.406,0,0,0-3.286,0,.989.989,0,0,0-.565.477c-.53,1.042-1.042,2.1-1.484,3.162-.265.636.106.848.707.689s1.042-.336,1.855-.583Zm-3.869,11.766a25.98,25.98,0,0,0,.177,3.8,1.025,1.025,0,0,0,.671.707,23.938,23.938,0,0,0,2.968.389.918.918,0,0,0,.742-.442,2.261,2.261,0,0,0-1.1-2.685c-.76-.459-1.537-.883-2.332-1.29a9.29,9.29,0,0,0-1.131-.477ZM89.6,113.023c-.583.159-1.166.318-1.767.512a3.724,3.724,0,0,0-.707.459,2.614,2.614,0,0,0,.512.636,22.962,22.962,0,0,0,2.562,1.484,1.449,1.449,0,0,0,1.184,0,16.874,16.874,0,0,0,2.191-1.767c.177-.159.247-.742.106-.866-.83-.724-1.661-1.555-2.968-.866a6.694,6.694,0,0,1-1.113.477ZM53.45,137.685a7.491,7.491,0,0,0,2.173-3.71.883.883,0,0,0-.159-.53,9.63,9.63,0,0,0-1.219-1.855,2.014,2.014,0,0,0-1.537-.6c-.336.106-.53.9-.654,1.413a2.35,2.35,0,0,0,.106,1.148C52.549,134.859,52.973,136.148,53.45,137.685Zm-7.844-10.317-.106-.318H42.143c-.3,0-.654.442-.813.76-.459.936-.83,1.908-1.254,2.862-.318.671,0,.866.636.883a2.685,2.685,0,0,0,2.756-1.343A23.813,23.813,0,0,1,45.606,127.368Zm19.009,12.879c-.3-.247-.512-.548-.813-.654-.9-.318-1.767-.583-2.756-.848-.53-.159-.795,0-.724.583.141.972.3,1.961.512,2.933a4.028,4.028,0,0,0,2.809,1.307.44.44,0,0,0,.336-.318c.159-.954.336-1.943.565-3Zm-.336-21.853a15.7,15.7,0,0,0-1.555-1.2,11.023,11.023,0,0,0-2.332-1.36c-.866-.283-1.378.265-1.343,1.166a3.039,3.039,0,0,0,2.685,2.7,2.438,2.438,0,0,0,2.473-1.307Zm-3.533,29.114c.247-.212.283-.247.283-.265-.389-1.855-.777-3.728-1.2-5.565,0-.106-.495-.247-.636-.159a11.553,11.553,0,0,0-1.767,1.29.954.954,0,0,0-.088.919c1.06,1.272,2.244,2.509,3.427,3.781ZM85.62,124.895v-.106l1.431-.424c.583-.194.636-.583.247-.954a13.432,13.432,0,0,0-1.767-1.537,1.766,1.766,0,0,0-1.219-.106,12.366,12.366,0,0,0-2.014.83c-.23.106-.495.353-.495.53s.265.406.477.53c.76.389,1.519.777,2.314,1.113a6.412,6.412,0,0,0,1.042.124Zm-1.466-4.01a10.776,10.776,0,0,0-4.894-1.767c-.848-.106-1.1.177-.724.919a23.158,23.158,0,0,0,1.537,2.544.76.76,0,0,0,.707.124c1.1-.565,2.12-1.131,3.392-1.82ZM59.986,137.738a3.181,3.181,0,0,0,.848.548,15.6,15.6,0,0,0,1.625.406c2.12.548,2.085.548,2.032-1.59,0-.742-.353-.936-1.025-.919s-1.661,0-2.491,0c-1.237,0-1.343.159-.972,1.555Zm11.66-12.367a2.738,2.738,0,0,0-.866-.106c-1.89.389-3.781.777-5.636,1.237-.53.141-.406.548,0,.777a5.176,5.176,0,0,0,6.519-1.855ZM81.8,114.189c.777.106,1.449,0,1.767-.671.495-1.06.883-2.155,1.307-3.233.212-.53,0-.742-.548-.654s-.777.194-1.166.265a1.431,1.431,0,0,0-1.325,1.767A23.946,23.946,0,0,1,81.8,114.189ZM36.949,126.714v-.336c-.671-.53-1.325-1.1-2.049-1.572a.878.878,0,0,0-.848.23c-.76.6-1.466,1.237-2.155,1.873a5.792,5.792,0,0,0-.53.848Zm43.989,4.046c-.124-.265-.159-.459-.265-.548a29.3,29.3,0,0,0-2.756-1.767.76.76,0,0,0-.512.3c-.159.265-.177.618-.318.9-.459.883,0,1.148.813,1.29s1.484.336,2.244.477a1.06,1.06,0,0,0,.707-.106C81.027,131.166,80.939,130.866,80.939,130.76Zm-3.109.406a2.95,2.95,0,0,0,3.215,3.145c.141,0,.389-.159.371-.212-.106-.654,0-1.643-.424-1.89a15.439,15.439,0,0,0-3.109-1.042ZM43.1,140.37l-.265-.512c-.954.141-2.279,0-2.774.512a9.452,9.452,0,0,0-1.272,3.18l.477.265ZM94.436,111.08v-.512c-1.025-.3-2.032-.636-3.074-.883a1.025,1.025,0,0,0-.654.336,8.834,8.834,0,0,0-.9,1.519c0,.106.265.548.336.53,1.519-.3,2.933-.654,4.346-.989ZM80.02,117.846l1.078.353c.795.194,1.59.406,2.4.565a.759.759,0,0,0,.6-.23.636.636,0,0,0-.159-.583c-.795-.742-1.625-1.449-2.526-2.244ZM90.125,127.9l.318-.336c-.459-.689-.9-1.378-1.378-2.049a1.855,1.855,0,0,0-3.056,0ZM62.142,147.331h.3c.3-.742.636-1.466.866-2.226,0-.247,0-.742-.141-.795a9.322,9.322,0,0,0-1.767-.53s-.194.212-.159.3c.265,1.06.618,2.138.954,3.215Zm14.963-22.542h0a12.7,12.7,0,0,0,.689,1.59c0,.159.442.177.654.265a1.554,1.554,0,0,0,.177-.6,14.732,14.732,0,0,0-.141-2.491c-.141-.83-.353-.9-.972-.777a.76.76,0,0,0-.654,1.078C76.911,124.117,77.017,124.418,77.105,124.789ZM31.261,128.5l-.106.495a8.039,8.039,0,0,0,2.579.848c.371,0,.777-1.06,1.148-1.643l-.23-.318Zm57.416-.548H88.27c0,.477-.159,1.166.106,1.4a3.162,3.162,0,0,0,1.59.336c.159,0,.371-.194.548-.318-.124-.177-.194-.389-.353-.495-.389-.318-.989-.548-1.484-.919Zm4.629-15.9v.459c.53.23,1.131.707,1.572.6s.742-.813,1.1-1.254l-.23-.265ZM58.1,135.813v-.424c-.424-.088-1.06-.389-1.254-.23a3.939,3.939,0,0,0-.76,1.4l.318.247Zm-13.338-10.6c0,1.007.636,1.06,1.29.972a2,2,0,0,0,.618-.353c-.159-.159-.3-.389-.495-.442a10.264,10.264,0,0,0-1.413-.23Zm3.18,3.887c.088-.442.265-.76.177-.989s-.442-.336-.671-.512l-.689.954Z" transform="translate(-28.775 -96.67)" fill="#9b7c5d"/><path d="M42.607,111.94a28.056,28.056,0,0,1-.866,3.975c-.371,1.042-2.279,1.307-3.533.424a5.476,5.476,0,0,1-1.767-2.314,62.456,62.456,0,0,1-1.767-6.219.848.848,0,0,1,.336-.777,9.081,9.081,0,0,0,3.533-3.816,26.019,26.019,0,0,1,2.42-3.427c1.413-1.625,4.805-.989,5.971,1.5a2.4,2.4,0,0,0,.23.53c.141.194.371.442.548.442a.9.9,0,0,0,.583-.442c.3-.548.477-1.131.795-1.678a2.314,2.314,0,0,1,3.039-1.2,11.837,11.837,0,0,1,2.721,1.537c1.5,1.078,2.968,2.226,4.417,3.392a.919.919,0,0,1,.141.919,8.462,8.462,0,0,0-1.519,3.851,7.51,7.51,0,0,1-.618,1.767c-.6,1.166-1.219,1.113-2.473.76-1.608-.442-1.943-1.025-1.59-2.668s-1.625-3.869-3.993-4.328a6.607,6.607,0,0,0-7.667,4.487c-.23.777-.424,1.572-.636,2.35s0,1.219,1.06.954a6.269,6.269,0,0,1,.636-.018Z" transform="translate(-13.869 -91.418)" fill="#ddbc90"/><path d="M52.181,114.994a3.533,3.533,0,0,0-2.226-3.109.654.654,0,0,1-.283-1.166c.724-.8,1.555-1.5,2.3-2.261a6.1,6.1,0,0,0,.689-.936,3.322,3.322,0,0,0-1.042-.212,4.858,4.858,0,0,1-4.169-1.449c-1.131-.936-2.226-1.926-3.321-2.915a19.616,19.616,0,0,0-1.767-1.643c-.9-.671-1.873-1.254-2.827-1.89l-.83-.53a5.583,5.583,0,0,1,.742-.707,8.639,8.639,0,0,1,10.6,1.643c1.007,1.025,2.12,1.943,3.2,2.9a1.431,1.431,0,0,0,.671.389c1.36.159,1.307.989,1.272,2.067,0,2.014.247,4.046.177,6.06a12.365,12.365,0,0,1-.777,3.834c-.212.548-1.042.883-1.59,1.307Z" transform="translate(-3.674 -95.709)" fill="#ddbc90"/><path d="M36.882,104.454a20.84,20.84,0,0,0,1.943,3.2,3.993,3.993,0,0,0,4.629,1.113c.618-.212.936-.106,1.2.424a5.953,5.953,0,0,0,4.54,3.374c.689.124.636.512.442,1.007a5.176,5.176,0,0,1-6.431,2.88c-1.007-.336-1.961-.813-2.986-1.1a25.3,25.3,0,0,0-2.544-.371,1.413,1.413,0,0,1-.883-.495c-.689-1.378-1.2-2.827-1.961-4.169a6.519,6.519,0,0,1-.548-5.918,6.255,6.255,0,0,1,1.29-1.767c.477-.512.936-.424,1.131.3l.353,1.413Z" transform="translate(-16.023 -82.413)" fill="#ddbc90"/><path d="M36.6,112.639a20.2,20.2,0,0,0,2.756-.247,5.954,5.954,0,0,0,4.134-3.215c.247-.459.495-.689,1.007-.424a7.067,7.067,0,0,0,8.286-1.767c.707-.689,1.378-1.413,2.049-2.138s.9-.442,1.148.247a5.3,5.3,0,0,1-2.456,7.067,10.6,10.6,0,0,0-4.046,3.622c-.106.177-.618.265-.919.23-1.5-.177-3-.512-4.5-.565a11.165,11.165,0,0,1-5.636-.972,3.622,3.622,0,0,1-1.82-1.837Z" transform="translate(-8.991 -77.066)" fill="#ddbc90"/><path d="M35.457,111.224a4.1,4.1,0,0,1-1.767-3.056,6.448,6.448,0,0,1,2.791-6.007,12.366,12.366,0,0,0,3.851-4.4.883.883,0,0,1,.777-.265A21.412,21.412,0,0,0,48.335,98.8a32.521,32.521,0,0,1,4.646,1.007c.247,0,.424.424.636.636-.265.141-.548.265-.795.424a13.584,13.584,0,0,0-2.067,1.466c-.512.512-.777.53-1.272,0a5.053,5.053,0,0,0-7.632.477,38.5,38.5,0,0,0-2.473,4.01,4.575,4.575,0,0,1-3.18,2.456c-.707.124-.9.495-.636,1.113a3.045,3.045,0,0,0,.159.636Z" transform="translate(-16.435 -94.607)" fill="#ddbc90"/><path d="M37.325,99.377h.424a.724.724,0,0,1,0,.6,6.484,6.484,0,0,0,2.526,7.756c.654.389.76.724,0,1.307a6.1,6.1,0,0,0-2.085,6.554,6.821,6.821,0,0,1,0,1.343c-.495-.141-1.148-.124-1.466-.424a18.669,18.669,0,0,1-2.35-2.668c-.936-1.307-1.767-2.7-2.579-4.081a1.078,1.078,0,0,1-.124-.936,12.808,12.808,0,0,0,1.767-4.929,6.378,6.378,0,0,1,3.887-4.523Z" transform="translate(-21.589 -89.826)" fill="#ddbc90"/><path d="M37.262,104.93a13.127,13.127,0,0,0,2.827,1.29,4.311,4.311,0,0,0,4.841-2.774,1.272,1.272,0,0,1,1.643-.954,2.721,2.721,0,0,1,2.685,2.809,20.778,20.778,0,0,0,.477,3.145c.141.636.106.919-.671,1.025-1.113.177-2.208.53-3.3.813a24.141,24.141,0,0,1-3.092.813,4.876,4.876,0,0,1-5.547-5.123,4.737,4.737,0,0,1,.141-1.042Z" transform="translate(-7.693 -82.111)" fill="#ddbc90"/><path d="M45.882,104.113c.353,1.431.742,2.844,1.042,4.293a1.1,1.1,0,0,1-.495.848c-1.025.707-2.138,1.29-3.145,2.032-.636.477-1.1.654-1.466-.159a10.6,10.6,0,0,1-.707-1.89c-.141-.618,0-1.29-.177-1.908a2.138,2.138,0,0,1,.883-2.385,5.954,5.954,0,0,0,1.466-2.685c.283-.795.654-.9,1.184-.389a22.971,22.971,0,0,1,1.643,2.085Z" transform="translate(1.76 -84.316)" fill="#ddbc90"/><path d="M36.954,104.957v-.636a5.3,5.3,0,0,1,8.109-2.721,2.4,2.4,0,0,1,1.078,2.7,3.781,3.781,0,0,1-2.526,2.191,1.113,1.113,0,0,1-.777-.283,4.7,4.7,0,0,0-5.3-1.29,3.354,3.354,0,0,1-.583.035Z" transform="translate(-8.092 -86.661)" fill="#ddbc90"/><path d="M37.967,106.922a2.6,2.6,0,0,0,.247.795c.389,1.219.724,2.456,1.2,3.639a1.237,1.237,0,0,1-.424,1.767c-1.272.883-2.509,1.767-3.816,2.668-.671.442-1.078.247-1.131-.53v-3.533a1.29,1.29,0,0,1,.283-.795c1.1-1.272,2.208-2.509,3.339-3.763a1.4,1.4,0,0,1,.3-.247Z" transform="translate(-15.447 -70.748)" fill="#ddbc90"/><path d="M40.016,108.21c-.689.76-1.307,1.466-1.926,2.173a4.2,4.2,0,0,0-.618.636c-1.1,1.855-2.9,1.926-4.788,1.767-.565,0-.724-.318-.53-.742.636-1.5,1.325-2.986,2.032-4.434a.83.83,0,0,1,.689-.406c1.519.177,3.021.424,4.54.654a2.331,2.331,0,0,1,.6.353Z" transform="translate(-20.429 -70.039)" fill="#ddbc90"/><path d="M41.342,107.239a3.089,3.089,0,0,1-.194.724,3.711,3.711,0,0,1-.424.53c-.742.76-1.413,2.067-2.244,2.173a21.867,21.867,0,0,1-5.3-.371c-.141,0-.371-.565-.283-.707.724-1.184,1.484-2.367,2.314-3.533.424-.565,2.208,0,2.491.742a1.135,1.135,0,0,0,1.767.618A5.638,5.638,0,0,1,41.342,107.239Z" transform="translate(-18.399 -73.521)" fill="#ddbc90"/><path d="M39.059,108.169a26.266,26.266,0,0,1-5.3.318c-1.1-.159-2.049-1.184-3.021-1.873a1.113,1.113,0,0,1,.3-.848c1.219-.707,2.491-1.378,3.781-1.979a1.007,1.007,0,0,1,.936.194c.954,1.078,1.873,2.208,2.791,3.321A8.232,8.232,0,0,1,39.059,108.169Z" transform="translate(-23.818 -78.779)" fill="#ddbc90"/><path d="M31.787,115a5.437,5.437,0,0,1,.636-.76q2.756-2.65,5.53-5.3a3.214,3.214,0,0,1,.795-.459,4.4,4.4,0,0,1,.247.777c.124.9.247,1.767.283,2.685a1.025,1.025,0,0,1-.353.813,19.787,19.787,0,0,1-6.7,2.279C32.141,115.1,32.052,115.051,31.787,115Z" transform="translate(-21.157 -66.811)" fill="#ddbc90"/><path d="M45.654,111.594l-.265.159c-.459.3-1.219.954-1.307.883a13.163,13.163,0,0,1-1.608-1.767c-.141-.159-.247-.371-.406-.459-1.131-.618-1.131-1.572,0-2.244.76-.477,1.466-1.007,2.244-1.466a2.226,2.226,0,0,1,.866-.159,2.771,2.771,0,0,1,0,.936,8.619,8.619,0,0,1-1.1,1.184l.194.194.742-.654c.495-.459.813-.371,1.148.212a1.943,1.943,0,0,1-.194,2.7c-.159.124-.194.371-.283.583Z" transform="translate(2.694 -71.71)" fill="#ddbc90"/><path d="M36.587,105.59c-.548,1.254-1.06,2.526-1.661,3.781a.954.954,0,0,1-.795.23c-1.042-.212-2.067-.477-3.092-.742-.671-.177-.777-.548-.495-1.166a2.915,2.915,0,0,1,2.9-2.085,24.268,24.268,0,0,0,2.95-.318Z" transform="translate(-24.668 -74.875)" fill="#ddbc90"/><path d="M36.526,111.749a3.709,3.709,0,0,1-.247-1.131,2,2,0,0,1,.548-1.184,24.848,24.848,0,0,1,2.314-1.36c.565-.336.795-.124.883.406.141.9.283,1.767.477,2.668a1.2,1.2,0,0,1-.83,1.537,2.774,2.774,0,0,0-.777.442c-1.113.936-1.555.883-2.138-.742a2.246,2.246,0,0,0-.212-.636Z" transform="translate(-9.801 -68.243)" fill="#ddbc90"/><path d="M45.663,102.014a2.191,2.191,0,0,1,2.756.336,24.849,24.849,0,0,0,2.138,1.413c.548.353.548.724-.088.972s-1.625.618-2.438.9a1.767,1.767,0,0,1-1.767-.442c-.583-.583-1.219-1.1-1.767-1.643s-.724-.9.336-1.254A4.007,4.007,0,0,1,45.663,102.014Z" transform="translate(9.876 -84.019)" fill="#ddbc90"/><path d="M43.1,104.169l.618.106h.177c.936.459,2.367.707,2.685,1.431a9.222,9.222,0,0,1,.265,3.781c0,.124-.512.424-.689.371a13.606,13.606,0,0,1-2.279-.972,1.272,1.272,0,0,1-.53-.848c-.177-1.078-.283-2.155-.389-3.251A2.084,2.084,0,0,1,43.1,104.169Z" transform="translate(7.087 -77.711)" fill="#ddbc90"/><path d="M47.192,104.016c-.813.247-1.36.442-1.908.565s-.972,0-.707-.689c.442-1.06.954-2.12,1.484-3.162a.989.989,0,0,1,.565-.477h3.286a1.219,1.219,0,0,1,.247.972C49.559,102.709,48.888,104.14,47.192,104.016Z" transform="translate(10.979 -87.611)" fill="#ddbc90"/><path d="M44.179,104.639a9.29,9.29,0,0,1,1.131.424c.8.406,1.572.83,2.332,1.29a2.261,2.261,0,0,1,1.1,2.738.919.919,0,0,1-.742.442,23.938,23.938,0,0,1-2.968-.389,1.025,1.025,0,0,1-.671-.707C44.232,107.307,44.232,106.105,44.179,104.639Z" transform="translate(10.176 -76.521)" fill="#ddbc90"/><path d="M47.758,101.775a6.7,6.7,0,0,0,1.148-.371c1.307-.689,2.138.141,2.968.866.141.124,0,.707-.106.866a16.874,16.874,0,0,1-2.191,1.767,1.448,1.448,0,0,1-1.184,0,22.958,22.958,0,0,1-2.562-1.484,2.613,2.613,0,0,1-.512-.636,3.729,3.729,0,0,1,.707-.459A15.129,15.129,0,0,1,47.758,101.775Z" transform="translate(13.062 -85.352)" fill="#ddbc90"/><path d="M36.788,113.094c-.477-1.537-.9-2.827-1.29-4.134a2.35,2.35,0,0,1-.106-1.148c.124-.512.318-1.307.654-1.413a2.014,2.014,0,0,1,1.537.6,9.628,9.628,0,0,1,1.219,1.855.883.883,0,0,1,.159.53A7.491,7.491,0,0,1,36.788,113.094Z" transform="translate(-12.113 -72.079)" fill="#ddbc90"/><path d="M37.6,105.6a23.815,23.815,0,0,0-2.138,2.88,2.685,2.685,0,0,1-2.756,1.343c-.636,0-.954-.212-.636-.883.424-.954.795-1.926,1.254-2.862.159-.318.512-.724.813-.76,1.113-.088,2.244,0,3.357,0Z" transform="translate(-20.765 -74.903)" fill="#ddbc90"/><path d="M41.988,110.13c-.23,1.06-.406,2.049-.636,3,0,.124-.194.265-.336.318a4.028,4.028,0,0,1-2.809-1.307c-.212-.972-.371-1.961-.512-2.933,0-.495.194-.742.724-.583.919.265,1.767.53,2.756.848C41.476,109.583,41.688,109.883,41.988,110.13Z" transform="translate(-6.219 -66.554)" fill="#ddbc90"/><path d="M42.564,104.716a2.438,2.438,0,0,1-2.544,1.307,3.039,3.039,0,0,1-2.685-2.7c0-.9.477-1.449,1.343-1.166a11.024,11.024,0,0,1,2.332,1.36A15.709,15.709,0,0,1,42.564,104.716Z" transform="translate(-7.13 -82.993)" fill="#ddbc90"/><path d="M40.429,115.394c-1.184-1.272-2.367-2.509-3.533-3.781a.954.954,0,0,1,.088-.919,11.552,11.552,0,0,1,1.767-1.29c.141-.088.618,0,.636.159.424,1.767.813,3.71,1.2,5.565C40.711,115.147,40.676,115.182,40.429,115.394Z" transform="translate(-8.44 -64.557)" fill="#ddbc90"/><path d="M47.637,107.005a6.408,6.408,0,0,1-1.042-.194c-.795-.336-1.555-.724-2.314-1.113-.212-.124-.477-.353-.477-.53s.265-.424.495-.53a12.363,12.363,0,0,1,2.014-.83,1.767,1.767,0,0,1,1.219.106,13.428,13.428,0,0,1,1.767,1.537c.389.371.336.76-.247.954l-1.431.424Z" transform="translate(9.226 -78.781)" fill="#ddbc90"/><path d="M48.62,104.852c-1.272.689-2.3,1.254-3.374,1.767a.76.76,0,0,1-.707-.124A23.167,23.167,0,0,1,43,103.951c-.371-.742-.124-1.025.724-.919a10.776,10.776,0,0,1,4.894,1.82Z" transform="translate(6.777 -80.638)" fill="#ddbc90"/><path d="M37.754,109.4c-.371-1.4-.23-1.555.989-1.519h2.491c.83,0,1.007.177,1.025.919,0,2.138,0,2.138-2.032,1.59a15.591,15.591,0,0,1-1.625-.406,3.18,3.18,0,0,1-.848-.583Z" transform="translate(-6.525 -68.333)" fill="#ddbc90"/><path d="M45.844,104.9a5.176,5.176,0,0,1-6.519,1.908c-.389-.23-.512-.636,0-.777,1.855-.459,3.745-.848,5.636-1.237a2.74,2.74,0,0,1,.883.106Z" transform="translate(-2.955 -76.143)" fill="#ddbc90"/><path d="M43.832,104.9a23.949,23.949,0,0,0,0-2.509,1.431,1.431,0,0,1,1.325-1.767,9.993,9.993,0,0,0,1.166-.265c.406-.053.76.124.548.654-.424,1.078-.813,2.173-1.307,3.233C45.281,104.9,44.609,105.036,43.832,104.9Z" transform="translate(9.197 -87.377)" fill="#ddbc90"/><path d="M43.062,108.455c1.519-.972,1.519-.972,2.085.795.23.689.459,1.4.636,2.1a3.126,3.126,0,0,1,0,.813,3.408,3.408,0,0,1-.883-.23c-.707-.406-1.378-.883-2.067-1.307s-.813-.795-.194-1.378a3.216,3.216,0,0,0,.442-.848Z" transform="translate(5.268 -68.518)" fill="#ddbc90"/><path d="M35.029,106.577l-5.494,1.042a5.792,5.792,0,0,1,.53-.848c.689-.636,1.4-1.272,2.155-1.873.212-.177.689-.336.848-.23.724.477,1.378,1.042,2.049,1.572Z" transform="translate(-26.854 -76.533)" fill="#ddbc90"/><path d="M46.377,108.028v.495a1.06,1.06,0,0,1-.707.106c-.76-.141-1.5-.336-2.244-.477s-1.272-.406-.813-1.29c.141-.283.159-.636.318-.9a.76.76,0,0,1,.512-.3c.936.583,1.855,1.2,2.756,1.767A1.274,1.274,0,0,1,46.377,108.028Z" transform="translate(5.787 -73.938)" fill="#ddbc90"/><path d="M42.7,106.447a15.439,15.439,0,0,1,3.162,1.042c.389.247.318,1.237.424,1.89a1.063,1.063,0,0,1-.371.212,2.95,2.95,0,0,1-3.215-3.145Z" transform="translate(6.411 -71.951)" fill="#ddbc90"/><path d="M35.938,109.359,32.1,112.892l-.477-.265a9.452,9.452,0,0,1,1.272-3.18c.495-.548,1.767-.371,2.774-.512Z" transform="translate(-21.562 -65.659)" fill="#ddbc90"/><path d="M50.68,101.76c-1.413.336-2.827.689-4.24.989,0,0-.389-.424-.336-.53a8.831,8.831,0,0,1,.9-1.519c.124-.177.477-.389.654-.336,1.042.247,2.049.583,3.074.883Z" transform="translate(15.034 -87.351)" fill="#ddbc90"/><path d="M43.313,104.2l1.4-2.138c.9.795,1.767,1.5,2.526,2.244a.636.636,0,0,1,.159.583.76.76,0,0,1-.6.23c-.813-.159-1.608-.371-2.4-.565Z" transform="translate(7.986 -83.028)" fill="#ddbc90"/><path d="M49.126,107.856,45.01,105.4a1.855,1.855,0,0,1,3.056,0c.477.671.919,1.36,1.378,2.049Z" transform="translate(12.277 -76.628)" fill="#ddbc90"/><path d="M44.509,110.781a6.607,6.607,0,0,1-1.537-3.533,7.226,7.226,0,0,1,2.367.936c.336.336.247,1.2.124,1.767,0,.283-.636.477-.972.724Z" transform="translate(7.125 -69.925)" fill="#ddbc90"/><path d="M38.955,113.55c-.336-1.078-.671-2.155-.989-3.233,0,0,.124-.318.159-.3a9.33,9.33,0,0,1,1.767.53c.159,0,.23.548.141.795-.23.76-.565,1.484-.866,2.226Z" transform="translate(-5.535 -62.925)" fill="#ddbc90"/><path d="M42.724,106.089a3.9,3.9,0,0,0-.283-.919.76.76,0,0,1,.654-1.078c.618-.124.936.177.972.777s.124,1.661.141,2.491a1.555,1.555,0,0,1-.177.6c-.212-.088-.565-.106-.654-.265a12.7,12.7,0,0,1-.689-1.59Z" transform="translate(5.606 -77.971)" fill="#ddbc90"/><path d="M29.555,106.134l3.392-.618.23.318c-.371.583-.777,1.661-1.148,1.643a8.04,8.04,0,0,1-2.579-.848Z" transform="translate(-27.069 -74.305)" fill="#ddbc90"/><path d="M46.054,105.535c.495.3,1.007.6,1.484.936.159.106.23.318.353.495-.177.124-.389.336-.548.318a3.162,3.162,0,0,1-1.59-.336c-.265-.23,0-.919-.106-1.4Z" transform="translate(13.848 -74.255)" fill="#ddbc90"/><path d="M47.126,101.374l2.35-.459.23.265c-.353.442-.654,1.148-1.1,1.254s-1.042-.371-1.572-.6Z" transform="translate(17.405 -85.94)" fill="#ddbc90"/><path d="M38.578,108.277l-1.767.972L36.494,109a3.94,3.94,0,0,1,.76-1.4c.194-.159.83.141,1.254.23Z" transform="translate(-9.257 -69.135)" fill="#ddbc90"/><path d="M33.3,104.744a10.268,10.268,0,0,1,1.413.177c.194,0,.336.283.495.442a2,2,0,0,1-.618.353C33.94,105.8,33.322,105.751,33.3,104.744Z" transform="translate(-17.321 -76.255)" fill="#ddbc90"/><path d="M35.054,106.922l-1.184-.548.689-.954c.23.177.565.3.671.512S35.142,106.48,35.054,106.922Z" transform="translate(-15.891 -74.546)" fill="#ddbc90"/><path d="M43.5,108.249c.618.353.936.813.442,1.537-.795-.389-.6-.954-.424-1.537Z" transform="translate(8.113 -67.393)" fill="#ddbc90"/></g><g transform="translate(14.226 87.992)" opacity="0.76"><path d="M36.962,118.655c2.9-1.643,5.459-1.767,7.438-.283.618.477.813.371.919-.406a7.65,7.65,0,0,1,11.13-5.477,1.148,1.148,0,0,1,.459.3,2.984,2.984,0,0,1,.194.6,2.793,2.793,0,0,1-.636.159,19.76,19.76,0,0,0-2.049,0,1.325,1.325,0,0,0-1.325,1.2,1.555,1.555,0,0,0,.866,1.625,3.639,3.639,0,0,0,3.3,0,15.014,15.014,0,0,0,2.208-1.4,9.752,9.752,0,0,1,7.6-2.173,8.109,8.109,0,0,1,6.749,6.961,2.588,2.588,0,0,1-.265.724c-.212-.106-.459-.159-.654-.283a30.914,30.914,0,0,0-2.809-1.979,3.533,3.533,0,0,0-1.926-.177,1.961,1.961,0,0,0-1.643,2.721,4.947,4.947,0,0,0,5.176,3.056,5.8,5.8,0,0,0,5.106-3.745,2.616,2.616,0,0,1,.583-.671c.177.247.459.477.495.742a7.968,7.968,0,0,1-3.127,7.95,8.992,8.992,0,0,1-11.554-.247,6.572,6.572,0,0,0-1.767-1.042,1.519,1.519,0,0,0-2,.548,1.908,1.908,0,0,0,.389,2.3,3.533,3.533,0,0,0,2.915.477,6.873,6.873,0,0,1,1.2,0,4.664,4.664,0,0,1-.548,1.113,6.607,6.607,0,0,1-10.229-.3s-.106-.23-.212-.283-.477-.177-.707-.265c0,.23-.212.459-.177.654a4.929,4.929,0,0,1-.459,3.533,6.272,6.272,0,0,1-4.752,3.074,20.882,20.882,0,0,1-6.466-.194,70.186,70.186,0,0,1-10.458-2.244c-.636-.194-.866-.459-.707-1.113a43.02,43.02,0,0,1,3-9.575,13.9,13.9,0,0,1,4.735-5.883Zm25.175,12.561c-.689-.124-1.2-.194-1.767-.318a2.668,2.668,0,0,1-2.155-2.314,2.226,2.226,0,0,1,1.06-2.314,2.862,2.862,0,0,1,3.162,0,19.331,19.331,0,0,1,1.767,1.184,8.074,8.074,0,0,0,11.943-2.314,6.077,6.077,0,0,0,.936-3.357,5.823,5.823,0,0,0-.689.6,6.766,6.766,0,0,1-8.268,1.555,4.611,4.611,0,0,1-2.685-3.993,2.544,2.544,0,0,1,1.608-2.473,4.363,4.363,0,0,1,4.593.6l.707.389a.9.9,0,0,0,0-.654,7.384,7.384,0,0,0-7.4-4.258,10.829,10.829,0,0,0-5.459,2.438,9.945,9.945,0,0,1-1.767,1.1,4.77,4.77,0,0,1-3.869.23,2.544,2.544,0,0,1-1.608-2.35,1.908,1.908,0,0,1,1.343-1.908l.353-.283a2.562,2.562,0,0,0-.636-.23,6.819,6.819,0,0,0-7.067,5.3.848.848,0,0,0,.442.954,2.967,2.967,0,0,1,.936.813c1.29,1.855,2.65,3.675,3.781,5.636a43.529,43.529,0,0,1,1.767,4.258,5.424,5.424,0,0,0,5.176,3.127,5.777,5.777,0,0,0,3.8-1.413ZM46.36,123h-.212c-.106.23-.23.477-.318.724s-.265.724-.724.53c-.141,0-.194-.53-.124-.777a4.311,4.311,0,0,0-6.819-4.629,13.391,13.391,0,0,0-4.558,4.929,35.334,35.334,0,0,0-3.41,9.84c-.124.477,0,.724.548.83,3.392.707,6.766,1.519,10.194,2.12a15.246,15.246,0,0,0,6.855-.141,4.2,4.2,0,0,0,2.42-6.855,4.682,4.682,0,0,0-3-1.466c-.23,0-.406-.283-.6-.424.23-.124.459-.371.707-.371a4.911,4.911,0,0,1,1.113.194l.848.088A53.5,53.5,0,0,0,46.36,123Zm1.908,1.466h0l.795,1.343c.6,1.007,1.2,2.032,1.855,3,.159.247.512.353.795.53a3.8,3.8,0,0,0,0-.883,4.221,4.221,0,0,0-.336-1.007,17.981,17.981,0,0,0-1.272-2.544c-1.148-1.767-2.367-3.357-3.533-5-.141-.177-.548-.177-.848-.265a2.686,2.686,0,0,0,0,.777c.972,1.325,1.784,2.685,2.6,4.046Z" transform="translate(-29.175 -111.595)" fill="#9b7c5d"/><path d="M49.876,130.584a5.777,5.777,0,0,1-3.728,1.4,5.424,5.424,0,0,1-5.176-3.162,43.534,43.534,0,0,0-1.767-4.258c-1.131-1.961-2.491-3.781-3.781-5.636a2.968,2.968,0,0,0-.936-.813.848.848,0,0,1-.442-.954,6.819,6.819,0,0,1,7.067-5.3,2.56,2.56,0,0,1,.636.23l-.353.283a1.908,1.908,0,0,0-1.343,1.908,2.544,2.544,0,0,0,1.608,2.35,4.77,4.77,0,0,0,3.745-.177,9.945,9.945,0,0,0,1.767-1.1,10.829,10.829,0,0,1,5.512-2.438,7.385,7.385,0,0,1,7.473,4.258.9.9,0,0,1,0,.654l-.707-.389a4.364,4.364,0,0,0-4.593-.6,2.544,2.544,0,0,0-1.608,2.473,4.611,4.611,0,0,0,2.685,3.993,6.766,6.766,0,0,0,8.2-1.555,5.831,5.831,0,0,1,.618-.548,6.077,6.077,0,0,1-.936,3.357,8.073,8.073,0,0,1-11.942,2.314,19.329,19.329,0,0,0-1.767-1.184,2.862,2.862,0,0,0-3.162,0,2.226,2.226,0,0,0-1.06,2.314,2.668,2.668,0,0,0,2.35,2.191C48.675,130.319,49.187,130.39,49.876,130.584Z" transform="translate(-16.915 -110.964)" fill="#ddbc90"/><path d="M45.658,118.535a53.522,53.522,0,0,1,2.915,4.682l-.848-.088a4.911,4.911,0,0,0-1.113-.194c-.247,0-.477.247-.707.371.194.141.371.389.6.424a4.681,4.681,0,0,1,3,1.466,4.2,4.2,0,0,1-2.42,6.855,15.247,15.247,0,0,1-6.855.141c-3.427-.6-6.8-1.413-10.194-2.12-.512-.106-.671-.353-.548-.83a35.333,35.333,0,0,1,3.41-9.84,13.391,13.391,0,0,1,4.558-5.017,4.311,4.311,0,0,1,6.872,4.664c0,.247,0,.724.124.777.459.194.583-.212.724-.53s.212-.495.318-.724Z" transform="translate(-28.472 -107.13)" fill="#ddbc90"/><path d="M36.343,118.737c-.813-1.36-1.625-2.721-2.4-4.1a2.686,2.686,0,0,1,0-.777c.3.088.707.088.848.265,1.254,1.643,2.473,3.3,3.533,5a17.98,17.98,0,0,1,1.272,2.544,4.222,4.222,0,0,1,.336,1.007,3.8,3.8,0,0,1,0,.883c-.283-.177-.636-.283-.795-.53-.654-.972-1.254-2-1.855-3l-.795-1.343Z" transform="translate(-17.197 -105.866)" fill="#ddbc90"/></g><path d="M93.954,172.672a86.407,86.407,0,0,1,1.767-17.931c1.042-5.053,2.968-12.031,2.244-12.261s-2.1,3.533-3.109,3.286,0-3.922-1.943-4.964c-1.272-.689-2.862.283-3.374-.371s.565-1.431,1.025-2.88c.83-2.579-.477-5.441-1.113-5.441-1.148,0-.124,8.833-4.841,10.918a2.968,2.968,0,0,1-2.226.194c-1.413-.636-1.572-3.18-.972-8.515.777-6.943,2.173-12.914,1.873-13A20.493,20.493,0,0,1,80.3,126.81c-.83.954-2.579,2.968-4.417,2.685-1.378-.212-1.449-1.519-2.7-1.767-1.961-.283-4.293,2.615-5.3,5.123s-.636,4.116-1.131,4.169c-.777.088-2.562-4.169-3.215-8.975a56.531,56.531,0,0,1,.124-10.9,22.631,22.631,0,0,1-2.95,8.2c-2.085,3.092-3.834,3.3-5.53,6.7-1.29,2.632-1.537,5.053-1.855,5s.795-4.063-1.519-7.65c-.848-1.29-1.2-1.06-1.767-2.138-1.449-3.127,1.378-5.618,0-7.173-1.131-1.254-3.533-.177-4.717-1.608s0-3.2-.336-3.339c-.9-.353-7.773,14.716-9.575,14.133-1.078-.318.194-6.166-.212-6.254s-3.639,10.158-10.688,36.64Z" transform="translate(-26.751 -14.675)" fill="#d3ac79"/></g></svg>