<svg xmlns="http://www.w3.org/2000/svg" width="46.931" height="49.54" viewBox="0 0 46.931 49.54"><g transform="translate(-541.328 -590.893)"><path d="M154.041,177.79h0a23.477,23.477,0,0,1-46.931,0v-.3c8.672.87,18.557-5.4,23.454-24.964l.641-.778c.686,0,.755,2.586,1.442,2.654C135.3,162.962,141.845,178.7,154.041,177.79Z" transform="translate(434.218 439.143)" fill="#332217"/><path d="M145.815,170.5a23.477,23.477,0,0,1-36.405,0,27.848,27.848,0,0,1,9.153-1.51,28.215,28.215,0,0,1,9.016,1.442,28.831,28.831,0,0,1,18.305,0Z" transform="translate(437.181 461.284)" fill="#e85336"/></g></svg>