<svg xmlns="http://www.w3.org/2000/svg" xmlns:xlink="http://www.w3.org/1999/xlink" width="27.688" height="27.36" viewBox="0 0 27.688 27.36"><defs><clipPath id="a"><path d="M77.223,81.54A14.433,14.433,0,0,1,75.3,87.07a10.247,10.247,0,0,0-1.237,4.717,12.455,12.455,0,0,0,1.272,5.706c1.484,3.145,3.074,3.533,2.632,5.424a4.894,4.894,0,0,1-3.533,3.533,8.25,8.25,0,0,1-5.636-.283,3.427,3.427,0,0,1-2.1-3.533c0-1.979,1.519-2.279,2.615-4.858a7.526,7.526,0,0,0-.318-6.431,3.533,3.533,0,0,0-2.35-1.767,5.583,5.583,0,0,0-3.2.212,2.65,2.65,0,0,0-1.519,1.767c-.777,2.226,0,3.533-.9,4.611a4.346,4.346,0,0,1-4.293,1.466,3.127,3.127,0,0,1-2.226-2.65c-.336-1.272.459-1.961.247-3.427-.106-.883-1.148-1.661-2.191-2.385-1.466-1.042-1.767-4.558-2.208-6.06,3.763,2.42,9.2,6.219,14.84,4.452a25.7,25.7,0,0,0,11.377-8.109A3.215,3.215,0,0,1,77.223,81.54Z" transform="translate(-50.352 -79.456)" fill="none"/></clipPath></defs><g transform="translate(0 0)" clip-path="url(#a)"><path d="M77.223,81.54A14.433,14.433,0,0,1,75.3,87.07a10.247,10.247,0,0,0-1.237,4.717,12.455,12.455,0,0,0,1.272,5.706c1.484,3.145,3.074,3.533,2.632,5.424a4.894,4.894,0,0,1-3.533,3.533,8.25,8.25,0,0,1-5.636-.283,3.427,3.427,0,0,1-2.1-3.533c0-1.979,1.519-2.279,2.615-4.858a7.526,7.526,0,0,0-.318-6.431,3.533,3.533,0,0,0-2.35-1.767,5.583,5.583,0,0,0-3.2.212,2.65,2.65,0,0,0-1.519,1.767c-.777,2.226,0,3.533-.9,4.611a4.346,4.346,0,0,1-4.293,1.466,3.127,3.127,0,0,1-2.226-2.65c-.336-1.272.459-1.961.247-3.427-.106-.883-1.148-1.661-2.191-2.385-1.466-1.042-1.767-4.558-2.208-6.06,3.763,2.42,9.2,6.219,14.84,4.452a25.7,25.7,0,0,0,11.377-8.109A3.215,3.215,0,0,1,77.223,81.54Z" transform="translate(-50.352 -79.456)" fill="#9be5f9"/><path d="M77.324,81.616a13.833,13.833,0,0,1-.813,3.268c-.406,1.042-1.007,2-1.466,3.021a11.006,11.006,0,0,0-.6,6.572,14.133,14.133,0,0,0,2.9,5.971,4.364,4.364,0,0,1,.83,1.484,2.933,2.933,0,0,1-.194,1.767,5.053,5.053,0,0,1-2.208,2.526,8.127,8.127,0,0,1-6.607.389,3.71,3.71,0,0,1-2.35-2.385,4.046,4.046,0,0,1,.495-3.339,14.8,14.8,0,0,0,1.767-2.774,7.932,7.932,0,0,0,.689-3.2,6.484,6.484,0,0,0-.777-3.145,3.533,3.533,0,0,0-2.35-1.979h0a4.558,4.558,0,0,0-3.657.583,3.2,3.2,0,0,0-.9,1.625,7.067,7.067,0,0,0-.247,1.943,4.346,4.346,0,0,1-.353,2.067,4.752,4.752,0,0,1-1.572,1.4,4.293,4.293,0,0,1-4.063,0A3.339,3.339,0,0,1,54.6,95.732a3.533,3.533,0,0,1-.212-2.067,5.759,5.759,0,0,0,.283-1.943,2.244,2.244,0,0,0-.954-1.555c-.495-.477-1.078-.742-1.572-1.29a5.3,5.3,0,0,1-.936-1.767,34.858,34.858,0,0,1-.9-3.922v-.3l.247.159a41.234,41.234,0,0,0,6.519,3.745,12.366,12.366,0,0,0,7.314.972,21.2,21.2,0,0,0,6.784-3.18,24.044,24.044,0,0,0,5.53-5.088h0A3.321,3.321,0,0,1,77.324,81.616Zm0,0a3.268,3.268,0,0,0-.636-2.191h0a24.5,24.5,0,0,1-5.512,5.123A21.2,21.2,0,0,1,64.392,87.8a12.472,12.472,0,0,1-7.42-.919,43.812,43.812,0,0,1-6.59-3.71l.194-.141a39.3,39.3,0,0,0,.919,3.9,4.911,4.911,0,0,0,.9,1.767c.406.459,1.06.795,1.555,1.254a2.562,2.562,0,0,1,1.078,1.767,5.548,5.548,0,0,1-.283,2.032,3.127,3.127,0,0,0,.23,1.873,2.986,2.986,0,0,0,1.113,1.5,3.94,3.94,0,0,0,3.657-.106,4.223,4.223,0,0,0,1.413-1.254,3.781,3.781,0,0,0,.283-1.873,7.42,7.42,0,0,1,.265-2.049,3.534,3.534,0,0,1,1.025-1.767,4.946,4.946,0,0,1,4.063-.636h0a3.816,3.816,0,0,1,2.6,2.191,6.855,6.855,0,0,1,.777,3.321,8.057,8.057,0,0,1-.725,3.339,14.627,14.627,0,0,1-1.89,2.791,3.71,3.71,0,0,0-.477,3.109,3.41,3.41,0,0,0,2.173,2.226,7.932,7.932,0,0,0,6.431-.336,4.841,4.841,0,0,0,2.138-2.42,2.9,2.9,0,0,0,.194-1.59,4.24,4.24,0,0,0-.795-1.431A14.362,14.362,0,0,1,74.356,94.6a10.847,10.847,0,0,1,.654-6.607c.459-1.025,1.06-1.979,1.484-3.021a14.4,14.4,0,0,0,.83-3.357Z" transform="translate(-50.453 -79.532)" fill="#51a0bc"/></g></svg>