<svg xmlns="http://www.w3.org/2000/svg" xmlns:xlink="http://www.w3.org/1999/xlink" width="25.185" height="24.09" viewBox="0 0 25.185 24.09"><defs><clipPath id="a"><path d="M62.857,87.679a12.4,12.4,0,0,0,4,3A8.874,8.874,0,0,1,69.944,93.4a8.289,8.289,0,0,1,1.483,4.272c.165,2.657-.965,3.5.212,4.6a5.194,5.194,0,0,0,4.474,1.124,8.223,8.223,0,0,0,4.5-2.208A2.265,2.265,0,0,0,80.728,98c-.942-1.288-2.355-.981-4.285-2.31a5.512,5.512,0,0,1-2.566-4.415,2.439,2.439,0,0,1,1.107-2.044,5.814,5.814,0,0,1,2.708-1,2.726,2.726,0,0,1,2.025.634c1.625,1.226,1.507,2.392,2.778,2.76a4.761,4.761,0,0,0,4.168-.572,2.069,2.069,0,0,0,.659-2.576c-.306-.961-1.248-1.145-1.742-2.208-.283-.613.235-1.513.753-2.371a6.371,6.371,0,0,0-.165-4.477c-2,2.984-5.486,7.093-10.878,7.931-2.967.47-8.5,1.758-12.926.1C62.292,87.965,62.41,87.209,62.857,87.679Z" transform="translate(-62.344 -79.421)" fill="none"/></clipPath></defs><g clip-path="url(#a)"><path d="M62.842,87.972a12.4,12.4,0,0,0,4,3A8.874,8.874,0,0,1,69.929,93.7a8.289,8.289,0,0,1,1.483,4.272c.165,2.657-.965,3.5.212,4.6a5.194,5.194,0,0,0,4.474,1.124,8.223,8.223,0,0,0,4.5-2.208,2.265,2.265,0,0,0,.118-3.189c-.942-1.288-2.354-.981-4.285-2.31a5.512,5.512,0,0,1-2.566-4.415,2.439,2.439,0,0,1,1.107-2.044,5.814,5.814,0,0,1,2.708-1,2.725,2.725,0,0,1,2.025.634c1.625,1.226,1.507,2.392,2.778,2.76a4.761,4.761,0,0,0,4.168-.572,2.069,2.069,0,0,0,.659-2.576c-.306-.961-1.248-1.145-1.742-2.208-.283-.613.235-1.513.754-2.371.73-1.226-.518-3.72-.871-4.865-2,2.984-4.709,7.481-10.171,8.319a28.865,28.865,0,0,1-12.9-1.308A2.065,2.065,0,0,0,62.842,87.972Z" transform="translate(-62.328 -79.714)" fill="#9be5f9"/><path d="M62.85,88.265a10.638,10.638,0,0,0,2.1,1.86c.8.552,1.672.961,2.519,1.472a8.542,8.542,0,0,1,3.485,4.088,9.164,9.164,0,0,1,.33,5.212,2.229,2.229,0,0,0,0,1.247,2.53,2.53,0,0,0,.942.94,5.207,5.207,0,0,0,2.755.777,8.191,8.191,0,0,0,5.25-2.044,2.205,2.205,0,0,0,.824-2.248,2.965,2.965,0,0,0-1.7-1.88,8.638,8.638,0,0,1-4.874-3.107,4.466,4.466,0,0,1-.871-2.576,2.747,2.747,0,0,1,1.177-2.514h0a5.353,5.353,0,0,1,3.579-1.063,4.622,4.622,0,0,1,2.872,2.044,3.533,3.533,0,0,0,.989,1.165,4.037,4.037,0,0,0,1.6.368,4.081,4.081,0,0,0,3.014-1.042,2.189,2.189,0,0,0-.141-2.7,6.38,6.38,0,0,1-1.154-1.247,1.555,1.555,0,0,1,0-1.656c1.648-1.84.447-3.925-.188-5.907h.283a31.283,31.283,0,0,1-3.861,4.967,11.7,11.7,0,0,1-5.769,3.209,23.677,23.677,0,0,1-6.9.2,25.517,25.517,0,0,1-6.687-1.451h0a2.015,2.015,0,0,0,.424,1.88Zm0,0a2.044,2.044,0,0,1-.471-1.7h0a25.641,25.641,0,0,0,6.687,1.39,24.023,24.023,0,0,0,6.852-.266,11.584,11.584,0,0,0,5.627-3.209,32.076,32.076,0,0,0,3.767-4.967l.212-.286v.307a22.4,22.4,0,0,1,1.012,3.046,3.136,3.136,0,0,1,0,1.615c-.235.572-.542.961-.73,1.451-.589,1,.283,1.758,1.154,2.535a2.887,2.887,0,0,1,.659,1.554,2.029,2.029,0,0,1-.471,1.635A4.615,4.615,0,0,1,83.71,92.64a4.752,4.752,0,0,1-1.884-.429,4.512,4.512,0,0,1-1.177-1.329,4.057,4.057,0,0,0-2.472-1.84,4.822,4.822,0,0,0-3.108.9h0a2.3,2.3,0,0,0-1.012,2.044,4.178,4.178,0,0,0,.777,2.371,8.259,8.259,0,0,0,4.709,3,3.318,3.318,0,0,1,1.884,2.044,2.528,2.528,0,0,1-.942,2.514,8.484,8.484,0,0,1-5.51,2.044,5.192,5.192,0,0,1-2.873-.838,2.48,2.48,0,0,1-.989-1.042,2.337,2.337,0,0,1,0-1.329,8.927,8.927,0,0,0-.235-5.151,8.3,8.3,0,0,0-3.414-4.19c-.824-.511-1.7-.92-2.5-1.472a12.577,12.577,0,0,1-2.119-1.676Z" transform="translate(-62.336 -80.007)" fill="#51a0bc"/></g></svg>