<svg xmlns="http://www.w3.org/2000/svg" width="326.475" height="383.877" viewBox="0 0 326.475 383.877"><g transform="translate(-49.988 -10.335)"><g transform="translate(50.339 10.335)"><path d="M218.183,10.472S128.222,43.878,109.6,33.888l-4.681,19.728,57.066,31.713C161.931,85.559,211.371,43.261,218.183,10.472Z" transform="translate(84.242 -10.137)" fill="#0c63aa"/><path d="M194.343,87.061s13.983-30.355,3.964-76.589c0,0-28.74,39.457-60.937,34.965C104.867,40.873,109.278,110.729,194.343,87.061Z" transform="translate(104.118 -10.137)" fill="#5699e8"/><path d="M184.99,97.644S202.7,69.3,198.6,22.171c0,0-33.5,35.505-64.867,26.981C102.069,40.517,97.615,110.37,184.99,97.644Z" transform="translate(95.83 6.789)" fill="#0b5089" opacity="0.65"/><path d="M92.913,86.515,149.977,54.8,145.3,35.074c-18.62,9.99-108.578-23.416-108.578-23.416C43.527,44.447,92.967,86.742,92.913,86.515Z" transform="translate(-14.433 -8.421)" fill="#0c63aa"/><path d="M99.792,46.623c-32.2,4.49-60.935-34.965-60.935-34.965C28.835,57.89,42.818,88.247,42.818,88.247,127.883,111.913,132.295,42.057,99.792,46.623Z" transform="translate(-16.572 -8.421)" fill="#5699e8"/><path d="M106.484,49.293c-31.189,9.163-65.4-25.652-65.4-25.652C37.947,70.844,56.23,98.823,56.23,98.823,143.844,109.76,137.967,40.015,106.484,49.293Z" transform="translate(-8.642 8.916)" fill="#0b5089" opacity="0.65"/><path d="M353.261,184.081c0,40.078-8.485,78.265-26.4,108.679a.819.819,0,0,1-.232.467c-25.459,42.2-69.545,69.308-136.024,64.593-54.928-3.771-93.115-19.8-118.811-44.791a132.158,132.158,0,0,1-19.8-24.752,5.893,5.893,0,0,1-.937-1.649c-16.5-28.055-23.337-62.936-23.337-102.55A179.409,179.409,0,0,1,74.154,62.437c29.479-32.053,70.724-52.1,116.222-52.1C280.181,10.34,353.261,88.133,353.261,184.081Z" transform="translate(-27.465 -10.335)" fill="#5699e8"/><ellipse cx="28.911" cy="19.991" rx="28.911" ry="19.991" transform="translate(157.934 194.505)" fill="#1886d1" opacity="0.52"/><ellipse cx="28.279" cy="19.676" rx="28.279" ry="19.676" transform="translate(102.594 196.028)" fill="#1886d1" opacity="0.52"/><path d="M138.788,111.561c-.073-.066-.122-.105-.166-.149-1.745-1.637-3.5-3.262-5.229-4.918a48.554,48.554,0,0,1-4.6-4.969,18.8,18.8,0,0,1-2.5-3.986,8.321,8.321,0,0,1-.8-4.032,6.529,6.529,0,0,1,2.244-4.527,6.393,6.393,0,0,1,3.538-1.605,6.631,6.631,0,0,1,6.949,3.971,6.407,6.407,0,0,1,.531,2.422.514.514,0,0,1-.064.245c-.514.932-1.028,1.864-1.549,2.794-.076.135-.012.2.071.279q1.314,1.259,2.623,2.515a1.034,1.034,0,0,0,.073.073c.117.083.108.159.017.269q-1.134,1.362-2.261,2.731c-.166.2-.169.2.01.394q1.127,1.215,2.261,2.43a.32.32,0,0,1,.086.328c-.215.981-.423,1.967-.636,2.951C139.194,109.69,139,110.6,138.788,111.561Z" transform="translate(113.987 101.049)" fill="#0076aa"/><path d="M131.375,111.041c.091-.294.179-.585.269-.878q.473-1.56.947-3.122c.149-.482.291-.969.445-1.451a.3.3,0,0,0-.059-.3c-.692-.876-1.38-1.757-2.077-2.63-.1-.127-.086-.193.022-.3.837-.851,1.666-1.71,2.505-2.557.125-.13.113-.206,0-.33-.827-.93-1.649-1.867-2.476-2.8a.2.2,0,0,1-.02-.3c.548-.81,1.084-1.627,1.634-2.435a1.283,1.283,0,0,0,.117-.6,6.556,6.556,0,0,1,3.457-4.928,6.187,6.187,0,0,1,4.02-.714,6.481,6.481,0,0,1,5.444,4.585,6.347,6.347,0,0,1,.154,3.447,10.862,10.862,0,0,1-1.864,4.005,26.3,26.3,0,0,1-3.492,3.92c-2.124,2.011-4.414,3.827-6.709,5.635q-1.072.844-2.143,1.683c-.044.034-.091.066-.135.1Z" transform="translate(121.73 101.474)" fill="#0076aa"/><path d="M72.795,127.488c-3.11-3.509-4.152-4.465-7.022-7.817-5.924-6.917-5.982-8.057-9.606-11.957a61.047,61.047,0,0,0-12.121-10" transform="translate(-3.832 116.079)" fill="none" stroke="#0f67a3" stroke-linecap="round" stroke-linejoin="round" stroke-width="0.5"/><path d="M51.276,108.144a17.169,17.169,0,0,0-.225-2.324,15.372,15.372,0,0,0-1.333-3.793A20.484,20.484,0,0,1,48.807,99" transform="translate(3.057 117.944)" fill="none" stroke="#0f67a3" stroke-linecap="round" stroke-linejoin="round" stroke-width="0.25"/><path d="M57.173,106.312a12.629,12.629,0,0,1-3.47-.467c-1.375-.548-1.862-1.05-3.127-1.478a9.136,9.136,0,0,0-3.134-.465" transform="translate(1.083 125.034)" fill="none" stroke="#0f67a3" stroke-linecap="round" stroke-linejoin="round" stroke-width="0.25"/><path d="M50.9,108.257a15.932,15.932,0,0,1-2.339-3.653,13.722,13.722,0,0,1-.964-4.876,14.107,14.107,0,0,1,1.148-5.76,15.526,15.526,0,0,1,1.079,1.544,13.846,13.846,0,0,1,2.2,6.57,15.161,15.161,0,0,1-1.123,6.176Z" transform="translate(1.306 110.664)" fill="#0f67a3"/><path d="M56.86,104.446a16.55,16.55,0,0,1-3.687,2.386,14.933,14.933,0,0,1-4.994,1.089,15.332,15.332,0,0,1-5.968-.93,15.91,15.91,0,0,1,1.554-1.1,14.871,14.871,0,0,1,6.7-2.342,16.518,16.518,0,0,1,6.4.893Z" transform="translate(-6.486 124.47)" fill="#0f67a3"/><path d="M39.187,98.841c-1.074-.235-1.546-2.493-1.463-3.934a7.252,7.252,0,0,1,1.069-3.526c.8-1.324,1.713-2.234,2.645-2.231s1.725,1.094,2.05,1.935C44.746,94.336,40.939,99.225,39.187,98.841Z" transform="translate(-12.991 103.692)" fill="#0075c4" stroke="#0f67a3" stroke-linecap="round" stroke-linejoin="round" stroke-width="0.5"/><path d="M45.549,89.66c-1.507-1.446-3.462-1.275-5.131-1.126a1.352,1.352,0,0,0-.861.3c-.5.467-.193,1.218.091,3.071.35,2.258.169,2.9.876,3.668a3.1,3.1,0,0,0,1.192.788,4.3,4.3,0,0,0,5.106-2.29C47.717,91.8,45.637,89.744,45.549,89.66Z" transform="translate(-10.709 102.664)" fill="#0075c4" stroke="#0f67a3" stroke-linecap="round" stroke-linejoin="round" stroke-width="0.5"/><path d="M41.74,107.56c-.648-1.155.8-2.063,1.417-5.221.521-2.652.073-4.923-.536-8.011-.776-3.937-1.779-5.679-.966-6.313.685-.533,2.241.042,3.232.851,1.886,1.539,1.713,3.908,2.077,7.152.878,7.839,3.695,9.949,2.082,11.781C47.377,109.7,42.716,109.3,41.74,107.56Z" transform="translate(-7.727 101.752)" fill="#0075c4" stroke="#0f67a3" stroke-linecap="round" stroke-linejoin="round" stroke-width="0.5"/><path d="M38.049,99.926c-.648-.538-.235-1.444-1.2-2.413-.582-.585-1.189-.712-1.165-1.089.02-.335.514-.45,1.138-.873.9-.614.812-1.018,1.732-1.977a4.985,4.985,0,0,1,2.672-1.727,3.054,3.054,0,0,1,2.266.345c1.529,1.2.935,5.28-1.48,7.044C40.823,100.107,38.9,100.628,38.049,99.926Z" transform="translate(-15.925 107.483)" fill="#0075c4" stroke="#0f67a3" stroke-linecap="round" stroke-linejoin="round" stroke-width="0.5"/><path d="M40.512,96.217c-.575.01-1.13-1.6-1.211-2.76a2.333,2.333,0,0,1,.228-1.444c.467-.8,1.608-1.326,2.114-1.023C42.7,91.629,41.476,96.2,40.512,96.217Z" transform="translate(-10.723 106.23)" fill="#0075c4" stroke="#0f67a3" stroke-linecap="round" stroke-linejoin="round" stroke-width="0.5"/><path d="M39.674,99.439c-.352-.46,1.417-1.38,1.948-3.873.5-2.332-.555-3.851.362-4.588a2.322,2.322,0,0,1,2.231.012c1.639.771,2.246,3.188,1.72,4.925C44.974,99.082,40.2,100.129,39.674,99.439Z" transform="translate(-10.222 105.922)" fill="#0075c4" stroke="#0f67a3" stroke-linecap="round" stroke-linejoin="round" stroke-width="0.5"/><path d="M40.5,98.135c-1.206-.428-1.412-2.275-1.5-3.083-.179-1.593.281-3.308.7-3.318.208,0,.291.418.558.91,1.118,2.068,3.589,1.921,3.79,2.995C44.248,96.74,41.995,98.668,40.5,98.135Z" transform="translate(-11.192 107.432)" fill="#0075c4" stroke="#0f67a3" stroke-linecap="round" stroke-linejoin="round" stroke-width="0.5"/><path d="M41.19,104.713a20.036,20.036,0,0,1-3.051-2.479c-1.353-1.192-1.727-1.615-1.612-1.962.147-.448,1.008-.467,1.9-.617a13.628,13.628,0,0,0,6.159-3.076,20.232,20.232,0,0,0,3.083-2.988c.979-1.223,1.233-1.9,1.61-1.842.766.115,1.177,3.134.783,5.853-.242,1.671-.92,6.34-4.314,7.5A6.581,6.581,0,0,1,41.19,104.713Z" transform="translate(-14.738 107.45)" fill="#0075c4" stroke="#0f67a3" stroke-linecap="round" stroke-linejoin="round" stroke-width="0.5"/><path d="M55.388,103.119c-.925,1.96-7.039.876-8.583.6-4.355-.771-8.83-2.7-8.642-3.832.042-.259.294-.223,1.206-.9,1.4-1.04,1.426-1.583,2.7-2.53,1.052-.781,1.581-1.172,2.256-1.089,1.118.137,1.287,1.412,2.547,1.6.781.115,1.013-.335,1.9-.426,1.451-.149,2.66.866,3.541,1.605C52.7,98.473,56.178,101.439,55.388,103.119Z" transform="translate(-12.351 112.677)" fill="#0075c4" stroke="#0f67a3" stroke-linecap="round" stroke-linejoin="round" stroke-width="0.5"/><path d="M49.156,114.071c-.413.166-2.483-3.1-3.841-6.734A22.5,22.5,0,0,1,43.7,100.1c-.115-2.748.45-2.87.33-5.677-.166-3.893-1.373-6.557-.991-6.7.294-.108.736,1.561,2.574,3.2,1.519,1.356,2.261,1.143,2.848,2.224.7,1.272-.213,1.786.421,3.77.33,1.03.624,1.047,1.431,2.943A11.187,11.187,0,0,1,51.1,102c.264,1.456-.36,2.038-1.292,5.087a13.664,13.664,0,0,0-.881,4.228C48.921,113.051,49.374,113.983,49.156,114.071Z" transform="translate(-5.398 101.62)" fill="#0075c4" stroke="#0f67a3" stroke-linecap="round" stroke-linejoin="round" stroke-width="0.5"/><path d="M219.976,277.616c-34.412-33.474-62.7,0-62.7,0-29.621-22.241-51.463-34.23-67.59-39.912C24.73,164.908,54.062,42.96,53.854,42.96,41.033,63.782,27.318,91.95,27.617,136.882c0,39.613,6.839,74.495,23.34,102.55a5.92,5.92,0,0,0,.935,1.649c.02.032.042.061.064.1,23.822,39.07,67.186,64.5,138.554,69.442,66.479,4.715,110.8-22.393,136.259-64.593a.819.819,0,0,0,.232-.467C294.233,216.324,220.208,277.381,219.976,277.616Z" transform="translate(-27.607 36.866)" fill="#1886d1" opacity="0.5"/><path d="M92.5,88.645h19.2a5.92,5.92,0,0,1,4.47,9.731l-8.155,9.733a8.428,8.428,0,0,1-13.149,0L87.5,99.166a6.5,6.5,0,0,1,5-10.521Z" transform="translate(57.019 102.963)" fill="#fc99a6"/><path d="M92.26,91.281h8.251a2.544,2.544,0,0,1,1.923,4.182l-3.506,4.182a3.62,3.62,0,0,1-5.092.56,3.551,3.551,0,0,1-.558-.56L90.111,95.8a2.793,2.793,0,0,1,2.148-4.522Z" transform="translate(61.949 106.776)" fill="#f4c9d3"/><path d="M27.61,81.37c7.145,1.737,14.607,3.425,21.948,4.918,22.584,4.6,44.018,7.414,51.652,4.4,6.827-2.838,31.123,10.595,31.123,10.595" transform="translate(-27.61 92.437)" fill="none" stroke="#fff" stroke-linecap="round" stroke-miterlimit="10" stroke-width="0.581"/><path d="M117.043,93.162s-15.559.467-35.833,1.886S35.24,92.69,35.24,92.69" transform="translate(-16.571 108.815)" fill="none" stroke="#fff" stroke-linecap="round" stroke-miterlimit="10" stroke-width="0.581"/><path d="M30.01,116.186c9.909-1.957,19.4-3.695,27.575-4.673,2.52-.318,4.918-.538,7.145-.685,25.471-1.419,62-13.9,62-13.9" transform="translate(-24.138 114.949)" fill="none" stroke="#fff" stroke-linecap="round" stroke-miterlimit="10" stroke-width="0.581"/><path d="M115.79,101.807S130.4,90.723,145.959,94.98c15.562,4.233,30.169-6.851,50.453-8.27,7.218-.391,18.229-3.01,29.386-6.19" transform="translate(99.967 91.208)" fill="none" stroke="#fff" stroke-linecap="round" stroke-miterlimit="10" stroke-width="0.581"/><path d="M116.174,96.053s34.889-6.836,50.448-2.828a52.413,52.413,0,0,0,30.414-1.884" transform="translate(100.523 106.863)" fill="none" stroke="#fff" stroke-linecap="round" stroke-miterlimit="10" stroke-width="0.581"/><path d="M116.65,97.41s40.078,8,70.737,6.117c10.717-.661,21.581,1.174,32.64,3.5" transform="translate(101.212 115.644)" fill="none" stroke="#fff" stroke-linecap="round" stroke-miterlimit="10" stroke-width="0.581"/><circle cx="2.176" cy="2.176" r="2.176" transform="translate(118.986 200.089)" fill="#0469bc"/><circle cx="2.176" cy="2.176" r="2.176" transform="translate(136.126 206.516)" fill="#0469bc"/><circle cx="2.176" cy="2.176" r="2.176" transform="translate(123.339 215.658)" fill="#0469bc"/><circle cx="2.176" cy="2.176" r="2.176" transform="translate(196.748 201.271)" fill="#0469bc"/><circle cx="2.176" cy="2.176" r="2.176" transform="translate(179.609 207.698)" fill="#0469bc"/><circle cx="2.176" cy="2.176" r="2.176" transform="translate(192.396 216.84)" fill="#0469bc"/><path d="M151.881,32.772c.487,1.194.4,2.361-.2,2.6s-1.422-.551-1.911-1.745-.453-2.334.144-2.579S151.394,31.578,151.881,32.772Z" transform="translate(148.64 19.572)" fill="#0c63aa"/><path d="M162.339,44.459a8.9,8.9,0,0,1-4.575,5.9,8.286,8.286,0,0,1-4.7.661,9.757,9.757,0,0,1-1.272-.294c.188-.538.357-1.219.626-1.953a6.4,6.4,0,0,0,.915.411,4.9,4.9,0,0,0,3.719-.489,5.92,5.92,0,0,0,2.985-3.328,7.732,7.732,0,0,0,.538-3.5,8.143,8.143,0,0,0-1.174-3.4,9.492,9.492,0,0,0-3.328-3.279c-.049-.024-.073-.049-.122-.073-1.933-1.223-2.961-1.493-4.16-1.444a2.585,2.585,0,0,1-1.615-.245,1.34,1.34,0,0,1-.587-1.37c.2-.44.93-.489,1.248-.538A12.383,12.383,0,0,1,161.164,37.8,9.772,9.772,0,0,1,162.339,44.459Z" transform="translate(148.802 20.295)" fill="#95a09e"/><path d="M152.5,48.814a5.3,5.3,0,0,0,.832.367,4.9,4.9,0,0,0,3.719-.489,5.92,5.92,0,0,0,2.985-3.328,7.732,7.732,0,0,0,.538-3.5,8.143,8.143,0,0,0-1.174-3.4,9.492,9.492,0,0,0-3.328-3.279c-.049-.024-.073-.049-.122-.073-1.933-1.223-2.961-1.493-4.16-1.444a2.585,2.585,0,0,1-1.615-.245,1.34,1.34,0,0,1-.587-1.37c.2-.44.93-.489,1.248-.538A12.383,12.383,0,0,1,161.164,37.8a9.772,9.772,0,0,1,1.174,6.655,8.9,8.9,0,0,1-4.575,5.9,8.286,8.286,0,0,1-4.7.661,9.757,9.757,0,0,1-1.272-.294" transform="translate(148.802 20.295)" fill="none" stroke="#6f7272" stroke-miterlimit="10" stroke-width="0.1"/><path d="M159.367,35.767a9.7,9.7,0,0,1-.357,3.592A6.745,6.745,0,0,1,155.9,43.2a7.139,7.139,0,0,1-4.991.776" transform="translate(150.78 26.46)" fill="none" stroke="#d2d6d6" stroke-miterlimit="10" stroke-width="0.25" opacity="0.48"/></g><g transform="translate(65.405 286.814)"><path d="M159.9,198.615a34.362,34.362,0,0,0-3.066,1.649c-91.71,49.978-114.806,29.946-119.048-2.359-.235-.937-.235-2.121-.467-3.066-3.066-34.417-9.432-38.424,9.43-65.3s109.841,42.2,109.841,42.2Z" transform="translate(-33.767 -123.332)" fill="#fc99a6"/><circle cx="8.015" cy="8.015" r="8.015" transform="translate(30.829 72.215)" fill="#eef7ff"/><path d="M154.457,160.724C62.747,210.7,39.652,190.67,35.409,158.365c13.2,11.319,46.912,28.292,111.742-7.541Z" transform="translate(-31.392 -83.556)" fill="#db6181" opacity="0.3"/><ellipse cx="31.589" cy="33.004" rx="31.589" ry="33.004" transform="translate(112.695 28.135)" fill="#fc99a6"/><circle cx="8.015" cy="8.015" r="8.015" transform="translate(137.202 69.15)" fill="#eef7ff"/><path d="M221.636,191.853c-.232,1.649-.232,3.066-.467,4.715-4.715,29.232-28.055,46.44-115.515,2.356-2.121-.935-4.243-2.121-6.364-3.3l3.063-25.224s91.243-65.067,109.856-39.841C231.065,155.55,224.939,159.32,221.636,191.853Z" transform="translate(61.028 -121.285)" fill="#fc99a6"/><circle cx="8.015" cy="8.015" r="8.015" transform="translate(237.862 72.21)" fill="#eef7ff"/><path d="M140.351,165.465c0,18.153-14.145,33-31.583,33a31.044,31.044,0,0,1-27.11-16.029,29.219,29.219,0,0,0,14.852,4.008c17.443,0,31.583-14.852,31.583-33a34.394,34.394,0,0,0-4.48-16.973A33.1,33.1,0,0,1,140.351,165.465Z" transform="translate(35.52 -104.327)" fill="#ea8193" opacity="0.3"/><path d="M217.4,157.349c-4.715,29.232-28.055,46.44-115.513,2.359l6.364-8.016C108.018,151.69,163.888,181.4,217.4,157.349Z" transform="translate(64.79 -82.301)" fill="#db6181" opacity="0.3"/><circle cx="8.015" cy="8.015" r="8.015" transform="translate(119.045 44.629)" fill="#eef7ff"/><circle cx="8.015" cy="8.015" r="8.015" transform="translate(155.584 44.629)" fill="#eef7ff"/><circle cx="8.015" cy="8.015" r="8.015" transform="translate(198.255 50.759)" fill="#eef7ff"/><circle cx="8.015" cy="8.015" r="8.015" transform="translate(240.924 26.476)" fill="#eef7ff"/><circle cx="8.015" cy="8.015" r="8.015" transform="translate(70.283 50.881)" fill="#eef7ff"/><circle cx="8.015" cy="8.015" r="8.015" transform="translate(27.729 26.554)" fill="#eef7ff"/><path d="M148.331,174.5c-21.972-15.659-86.934-59.09-102.52-36.849-5.358,7.609-8.662,13.408-10.595,18.547.905-7.561,4.331-14.974,12.674-26.866C63.476,107.091,126.457,158.4,148.331,174.5Z" transform="translate(-31.671 -122.611)" fill="#f9cfd6" opacity="0.3"/><path d="M135.663,157.181a30.843,30.843,0,0,0-53.952.465c5.505-9.64,12.968-22.339,28.652-22.8C125.9,134.377,130.108,147.785,135.663,157.181Z" transform="translate(35.597 -106.696)" fill="#f9cfd6" opacity="0.3"/><path d="M213.7,191.625c-.245,1.664-.245,3.058-.465,4.722a51.229,51.229,0,0,1-2.153,8.735c.024-.147.049-.269.073-.416.22-1.664.22-3.083.465-4.722,3.3-32.542,9.42-36.31-9.445-61.292-14.9-20.21-76.364,17.494-100.269,33.3,23.978-16.222,87.448-61.83,102.349-41.62C223.119,155.315,217,159.107,213.7,191.625Z" transform="translate(64.813 -120.543)" fill="#f9cfd6" opacity="0.3"/></g><g transform="translate(278.487 81.067)"><path d="M128.657,39.666a9.078,9.078,0,0,1,1.9.573c.631.237,1.148.321,1.776.553,1.126.448,2.251.893,3.247,1.321a65.148,65.148,0,0,1,6.283,3.144,34.979,34.979,0,0,1,5.75,3.986,45.754,45.754,0,0,1,5.06,4.942,3.987,3.987,0,0,1-.335,5.628l-.044.037a3.9,3.9,0,0,1-5.207.093l-.237-.174a35.321,35.321,0,0,0-4.534-3.259,36.791,36.791,0,0,0-5.048-2.545,40.438,40.438,0,0,0-5.295-1.784,19.241,19.241,0,0,0-2.7-.57l-2.466-.4a5.986,5.986,0,0,1,.064-11.972h0a3.581,3.581,0,0,1,1.17.188Z" transform="translate(-120.854 -39.243)" fill="#0c63aa"/></g><g transform="translate(116.419 81.067)"><path d="M80.257,39.431a3.581,3.581,0,0,1,1.17-.188h0a5.986,5.986,0,0,1,.064,11.972l-2.466.4a19.239,19.239,0,0,0-2.7.57,40.436,40.436,0,0,0-5.295,1.784,36.789,36.789,0,0,0-5.048,2.545,35.324,35.324,0,0,0-4.534,3.259l-.237.174A3.9,3.9,0,0,1,56,59.85l-.044-.037a3.989,3.989,0,0,1-.335-5.628,45.748,45.748,0,0,1,5.06-4.942,34.977,34.977,0,0,1,5.75-3.986,65.144,65.144,0,0,1,6.283-3.144c1-.428,2.121-.874,3.247-1.321.629-.232,1.145-.316,1.776-.553a9.077,9.077,0,0,1,1.9-.573Z" transform="translate(-54.617 -39.243)" fill="#0c63aa"/></g></g></svg>