<svg xmlns="http://www.w3.org/2000/svg" width="49.984" height="66.202" viewBox="0 0 49.984 66.202"><ellipse cx="24.991" cy="33.071" rx="24.991" ry="33.071" transform="translate(0.001)" fill="#083766"/><path d="M57.954,80.478c0,18.277,11.182,33.081,24.982,33.081,9.322,0,17.446-6.729,21.752-16.736-4.551,6.313-10.962,10.252-18.082,10.252-13.8,0-24.982-14.8-24.982-33.081a41.338,41.338,0,0,1,3.3-16.442A39.1,39.1,0,0,0,57.954,80.478Z" transform="translate(-57.954 -47.357)" fill="#05243d" opacity="0.52"/><ellipse cx="5.661" cy="5.703" rx="5.661" ry="5.703" transform="translate(27.546 47.661)" fill="#fffbea"/><path d="M59.239,70.08a9.47,9.47,0,0,0,7.017,3.335h.024a9.917,9.917,0,0,0,7.805-4.282,17.3,17.3,0,0,0,3.23-10.325,18.558,18.558,0,0,0-.756-5.19C69.1,55.426,62.8,61.6,59.239,70.08Z" transform="translate(-56.095 -53.049)" fill="#fffbea"/></svg>