<svg xmlns="http://www.w3.org/2000/svg" width="157.379" height="189.404" viewBox="0 0 157.379 189.404">
  <g id="Селф" transform="translate(0 -61.331)">
    <path id="Контур_44" data-name="Контур 44" d="M84.9,312.061a297.162,297.162,0,0,0,14.48-32.8c6.024-16.274,12.912-32.2,19.219-48.358,1.894-4.852,4.076-10.47,9.564-14.333,4.358-3.068,6.743-2.173,18.527-6.247,10.48-3.621,13.242-5.936,14.2-6.778,2.459-2.175,7.813-6.91,7.392-13.318-.509-7.8-9.168-12.085-9.775-12.373-5.745-2.743-13.819-2.464-13.822-2.464a49.684,49.684,0,0,0,5.8-9.88c2.965-6.729,5.7-12.941,3.543-19.939-2.657-8.618-10.8-12.134-11.517-12.432a20.589,20.589,0,0,0-13.262-.619c-9.834,2.483-14.9,10.648-16.1,12.716a22.1,22.1,0,0,0-1.842-11.412c-.876-1.9-3.345-7.272-9.3-9.709-.387-.159-8.564-3.355-15.033,1.6-4.443,3.4-5.451,8.63-6.009,11.515A24.341,24.341,0,0,0,81,146.47a17.136,17.136,0,0,0-3.159-4.952c-5.356-5.818-12.926-5.542-13.917-5.491-1.8.1-8.26.438-12.413,5.921-3.3,4.353-2.6,9.721-1.7,16.54,1.556,11.825,5.62,14.473,5.647,23.318.007,3.078-.472,6.08-3.655,14.654-3.548,9.565-8.711,21.348-25.114,50.543-2.988,5.317-6.423,11.365-6.423,11.365-3.413,6.012-5.921,10.428-7.69,13.5Z" transform="translate(-10.926 -61.621)" fill="#5699e8"/>
    <path id="Контур_45" data-name="Контур 45" d="M22.326,230.793s3.428-6.058,6.411-11.373c16.42-29.2,21.573-40.974,25.114-50.551,3.191-8.576,3.673-11.568,3.67-14.649a25.272,25.272,0,0,0-1.715-9.053,24.089,24.089,0,0,1,.477,4.8c.01,3.076-.472,6.08-3.655,14.651-3.262,8.794-7.913,19.5-21.38,43.844-.027-.01-.071.007-.1-.007-.776-.489.311-3.518,1.111-5.772-1.811,3.313-3.783,6.875-5.973,10.771-2.988,5.329-6.425,11.363-6.425,11.363-3.413,6.026-6.205,10.876-7.964,13.956l4.463,2.444C17.985,238.417,20,234.85,22.326,230.793Z" transform="translate(-11.9 -29.48)" fill="#dce2e5" opacity="0.3"/>
    <path id="Контур_46" data-name="Контур 46" d="M81.608,128.493a17.093,17.093,0,0,1,8.136,7.409,22.5,22.5,0,0,0-1.292-3.665,26.3,26.3,0,0,0-1.691-3.139,15.847,15.847,0,0,0-6.384-4.864c-.387-.159-8.564-3.352-15.033,1.6-4.441,3.4-5.451,8.63-6.009,11.512a24.34,24.34,0,0,0,.027,9.246,18.309,18.309,0,0,0-1.375-2.6c.046.3.091.641.142.9a17.956,17.956,0,0,0-1.275-2.461c-.213-.264-.409-.526-.651-.788-5.354-5.821-12.926-5.544-13.917-5.491-1.8.1-8.258.438-12.413,5.919-3.3,4.355-2.6,9.724-1.7,16.54a47.505,47.505,0,0,0,2.165,9.374,50.613,50.613,0,0,1-.942-5.121c-.9-6.809-1.593-12.183,1.708-16.54,4.155-5.476,10.619-5.818,12.405-5.909,1-.061,8.564-.333,13.92,5.488a17.25,17.25,0,0,1,3.169,4.952,24.416,24.416,0,0,1-.039-9.254c.563-2.87,1.581-8.1,6.014-11.517C73.034,125.141,81.221,128.334,81.608,128.493Z" transform="translate(10.563 -61.445)" fill="#dce2e5" opacity="0.3"/>
    <path id="Контур_47" data-name="Контур 47" d="M71.442,156.889c2.816.345,2.755.355,3.186,3.093.619,3.927,1.316,7.844,2.031,11.757a1.4,1.4,0,0,1-.6,1.554Q61.554,185.052,47.077,196.85c-1.742,1.417-1.953,1.373-2.613-.734a225.847,225.847,0,0,1-6.22-22.618c-.79-3.9-1.674-7.776-2.464-11.674a1.883,1.883,0,0,1,.3-1.324c2.349-3.252,4.754-6.467,7.118-9.709a1.568,1.568,0,0,1,1.933-.6C53.894,152.448,62.671,154.662,71.442,156.889ZM46.309,193.241l.338.076c.171-.279.36-.551.511-.839.746-1.412,1.419-2.868,2.231-4.243q5.425-9.168,10.92-18.3c.563-.942.533-1.116-.5-1.417-3.624-1.059-7.255-2.1-10.878-3.149-1.378-.4-1.534-.313-1.6,1.128q-.506,11.77-.989,23.54C46.3,191.1,46.321,192.174,46.309,193.241Zm1.674.668.23.174c.313-.223.644-.426.937-.67,1.128-.932,2.227-1.9,3.362-2.819q10.39-8.412,20.783-16.819a3.854,3.854,0,0,0,.58-.761,4.246,4.246,0,0,0-.837-.494c-3.112-1-6.242-1.938-9.342-2.97a1.657,1.657,0,0,0-2.2.829,237.743,237.743,0,0,0-13.188,22.665A8.192,8.192,0,0,0,47.983,193.909Zm-3.663-1.852.609-.24c.049-.384.122-.768.139-1.152q.54-12.486,1.074-24.967a1.167,1.167,0,0,0-1.018-1.375c-2.244-.555-4.475-1.165-6.716-1.74-.878-.225-1.057-.032-.864.847.35,1.593.766,3.176,1.03,4.783a166.96,166.96,0,0,0,5.7,22.939A3.47,3.47,0,0,1,44.32,192.057Zm10.267-26.305.042-.137c1.791.538,3.577,1.086,5.376,1.605a4.356,4.356,0,0,0,.966.054,4.19,4.19,0,0,0-.059-1.042c-1.013-3.205-2.063-6.4-3.078-9.606-.321-1.015-.453-1.13-1.272-.44q-3.777,3.186-7.477,6.462c-1.059.935-.974,1.162.421,1.578C51.2,164.729,52.891,165.242,54.587,165.751Zm20.555,5.968c-.044-.541-.051-.932-.113-1.314q-.8-4.929-1.62-9.851a5.377,5.377,0,0,0-.321-.918,3.665,3.665,0,0,0-.969.428q-4.037,3.509-8.033,7.059c-.79.7-.7,1.057.3,1.373q4.815,1.5,9.64,2.983C74.337,171.572,74.665,171.616,75.142,171.719Zm-3.007-13.372a5.55,5.55,0,0,0-.869-.423q-5.711-1.285-11.429-2.552c-.717-.159-.989.117-.768.81q1.519,4.8,3.058,9.6c.252.79.612.837,1.231.264,1.94-1.8,3.915-3.56,5.9-5.314C70.133,159.952,71.058,159.235,72.135,158.347ZM56.069,154.67c-.188-.191-.228-.269-.284-.284-3.318-.886-6.638-1.774-9.961-2.643-.812-.213-.844.284-.719.878.6,2.9,1.177,5.8,1.8,8.686.223,1.037.516,1.077,1.338.35,2.4-2.116,4.805-4.216,7.206-6.325C55.663,155.142,55.842,154.915,56.069,154.67Zm-10.2,8.37-2.231-10.531a6.276,6.276,0,0,0-.783.69q-2.551,3.505-5.077,7.03c-.484.675-.012.9.546,1.04q3.263.833,6.53,1.654A9.126,9.126,0,0,0,45.874,163.04Z" transform="translate(22.614 -22.361)" fill="#007cc1"/>
    <path id="Контур_48" data-name="Контур 48" d="M42.5,160.182a3.911,3.911,0,0,1-.732.355c-3.626.893-7.255,1.786-10.893,2.625-.284.066-.658-.259-.988-.4.237-.264.436-.695.724-.768q5.377-1.369,10.785-2.628a1.535,1.535,0,0,1,.913.2C42.424,159.619,42.424,159.915,42.5,160.182Z" transform="translate(14.119 -8.969)" fill="#007cc1"/>
    <path id="Контур_49" data-name="Контур 49" d="M51.984,177.591c-.191.108-.431.345-.553.294a1.425,1.425,0,0,1-.736-.575c-.45-.949-.761-1.962-1.236-2.9-.981-1.933-2.055-3.817-3.034-5.75-.159-.311-.029-.766-.032-1.155.362.161.92.223,1.062.5,1.507,2.951,2.951,5.933,4.4,8.911A2.938,2.938,0,0,1,51.984,177.591Z" transform="translate(37.935 2.841)" fill="#007cc1"/>
    <path id="Контур_50" data-name="Контур 50" d="M34.539,146.145c.228.311.426.538.575.8,1.483,2.523,2.97,5.04,4.409,7.585.154.272.01.712,0,1.077-.362-.149-.9-.191-1.062-.46-1.571-2.586-3.085-5.207-4.59-7.832a1.047,1.047,0,0,1-.059-.829C33.894,146.309,34.256,146.265,34.539,146.145Z" transform="translate(19.723 -28.067)" fill="#007cc1"/>
    <path id="Контур_51" data-name="Контур 51" d="M58.313,171.494c-.521.741-1,.487-1.436.115-1.583-1.334-3.151-2.684-4.725-4.027-.7-.595-1.434-1.152-2.075-1.8-.22-.223-.213-.67-.308-1.015.372.032.859-.076,1.1.12,2.386,1.965,4.735,3.974,7.079,5.987A2.248,2.248,0,0,1,58.313,171.494Z" transform="translate(42.888 -1.13)" fill="#007cc1"/>
    <path id="Контур_52" data-name="Контур 52" d="M41.284,165.209a6.708,6.708,0,0,1-.582.5c-2.268,1.551-4.529,3.112-6.827,4.62-.252.166-.714.012-1.079.007.088-.325.066-.805.279-.952,2.337-1.63,4.7-3.215,7.083-4.779a1.055,1.055,0,0,1,.832,0C41.14,164.668,41.186,164.989,41.284,165.209Z" transform="translate(18.332 -1.476)" fill="#007cc1"/>
    <path id="Контур_53" data-name="Контур 53" d="M59.606,152.914a7.083,7.083,0,0,1-.58.453c-1.59.969-3.169,1.957-4.788,2.873-.291.164-.761.017-1.148.015.135-.33.174-.81.421-.971q2.382-1.545,4.85-2.951a1.58,1.58,0,0,1,1.008.039C59.479,152.4,59.52,152.7,59.606,152.914Z" transform="translate(47.693 -19.22)" fill="#007cc1"/>
    <path id="Контур_54" data-name="Контур 54" d="M45.958,149.506c.191-.859.335-1.735.6-2.572.086-.279.472-.465.722-.692.142.289.448.612.4.856-.372,1.718-.785,3.43-1.272,5.119-.091.313-.585.511-.891.761a3.078,3.078,0,0,1-.23-1.13A23.785,23.785,0,0,1,45.958,149.506Z" transform="translate(36.374 -27.926)" fill="#007cc1"/>
    <path id="Контур_55" data-name="Контур 55" d="M55.308,161.853a6.174,6.174,0,0,1-1.25-.4.927.927,0,0,1-.367-.71c0-.127.421-.4.6-.362q2.58.551,5.136,1.218c.186.049.281.45.418.688-.254.12-.529.377-.761.34-1.267-.2-2.525-.467-3.788-.712Z" transform="translate(48.563 -7.479)" fill="#007cc1"/>
    <path id="Контур_56" data-name="Контур 56" d="M32.929,155.237a5.568,5.568,0,0,1-1.152-.372c-.24-.135-.369-.46-.548-.7.269-.144.56-.443.8-.409.834.117,1.652.35,2.476.543a22.8,22.8,0,0,1,2.263.56c.269.093.44.477.656.729-.308.137-.641.428-.915.382-1.2-.2-2.381-.5-3.57-.768Z" transform="translate(16.063 -17.061)" fill="#007cc1"/>
    <path id="Контур_57" data-name="Контур 57" d="M44.194,171.9c-.306.223-.546.528-.746.5a.91.91,0,0,1-.563-.57,4.776,4.776,0,0,1-.237-1.478c0-.279.264-.553.409-.827.259.154.67.254.746.472A13.542,13.542,0,0,1,44.194,171.9Z" transform="translate(32.584 5.765)" fill="#007cc1"/>
    <path id="Контур_58" data-name="Контур 58" d="M40.069,184.327c.012-1.067,0-2.136.039-3.2q.481-11.77.989-23.54c.061-1.441.218-1.529,1.6-1.128,3.624,1.052,7.255,2.09,10.878,3.149,1.033.3,1.062.475.5,1.417q-5.472,9.142-10.92,18.3c-.812,1.375-1.485,2.831-2.231,4.243-.152.289-.34.56-.511.839Z" transform="translate(28.854 -13.448)" fill="#5699e8"/>
    <path id="Контур_59" data-name="Контур 59" d="M40.753,182.484a8.189,8.189,0,0,1,.328-.866,237.742,237.742,0,0,1,13.188-22.665,1.657,1.657,0,0,1,2.2-.829c3.1,1.033,6.23,1.972,9.342,2.97a4.245,4.245,0,0,1,.837.494,3.854,3.854,0,0,1-.58.761q-10.383,8.419-20.783,16.819c-1.135.92-2.234,1.886-3.362,2.819-.294.245-.624.448-.937.67Z" transform="translate(29.844 -10.937)" fill="#5699e8"/>
    <path id="Контур_60" data-name="Контур 60" d="M43.3,184.72a3.469,3.469,0,0,0-.042-.905,166.961,166.961,0,0,1-5.7-22.939c-.264-1.608-.68-3.191-1.03-4.783-.193-.878-.015-1.072.864-.847,2.241.575,4.473,1.184,6.716,1.74a1.167,1.167,0,0,1,1.018,1.375q-.551,12.482-1.074,24.967c-.017.384-.091.768-.139,1.152Z" transform="translate(23.63 -15.024)" fill="#5699e8"/>
    <path id="Контур_61" data-name="Контур 61" d="M47.131,162.4c-1.7-.509-3.386-1.023-5.082-1.527-1.395-.416-1.48-.644-.421-1.578q3.711-3.266,7.477-6.462c.82-.69.952-.575,1.272.44,1.015,3.205,2.065,6.4,3.078,9.606a4.191,4.191,0,0,1,.059,1.042,4.356,4.356,0,0,1-.966-.054c-1.8-.519-3.585-1.067-5.376-1.605Z" transform="translate(30.07 -19.015)" fill="#5699e8"/>
    <path id="Контур_62" data-name="Контур 62" d="M58.7,166.073c-.477-.1-.8-.147-1.113-.24q-4.823-1.483-9.64-2.983c-1.006-.316-1.091-.67-.3-1.373q4-3.549,8.033-7.059a3.665,3.665,0,0,1,.969-.428,5.378,5.378,0,0,1,.321.918q.826,4.922,1.62,9.851C58.652,165.141,58.659,165.532,58.7,166.073Z" transform="translate(39.053 -16.715)" fill="#5699e8"/>
    <path id="Контур_63" data-name="Контур 63" d="M58.394,155.249c-1.077.888-2,1.605-2.88,2.381-1.982,1.754-3.956,3.516-5.9,5.314-.619.573-.979.526-1.231-.264q-1.538-4.8-3.058-9.6c-.22-.692.051-.969.768-.81q5.714,1.274,11.429,2.552A5.548,5.548,0,0,1,58.394,155.249Z" transform="translate(36.355 -19.263)" fill="#5699e8"/>
    <path id="Контур_64" data-name="Контур 64" d="M50.573,153.721c-.228.245-.406.472-.621.663-2.4,2.109-4.81,4.208-7.206,6.325-.822.727-1.116.688-1.338-.35-.621-2.89-1.2-5.789-1.8-8.686-.125-.595-.093-1.091.719-.878,3.323.869,6.643,1.757,9.961,2.643C50.346,153.452,50.385,153.53,50.573,153.721Z" transform="translate(28.11 -21.412)" fill="#5699e8"/>
    <path id="Контур_65" data-name="Контур 65" d="M44.795,161.609a9.115,9.115,0,0,1-1.015-.117q-3.27-.815-6.53-1.654c-.558-.142-1.03-.365-.546-1.04q2.525-3.523,5.077-7.03a6.275,6.275,0,0,1,.783-.69Z" transform="translate(23.693 -20.93)" fill="#5699e8"/>
    <path id="Контур_66" data-name="Контур 66" d="M109.867,204.367c4.169-.622,8.752-2.843,8.892-4.463.144-1.759-5.119-2.239-10.768-3.536C98.922,194.294,92.9,191,86.145,187.411c-7.952-4.228-14.2-7.563-20.313-14.928a57.988,57.988,0,0,1-10.6-20.039A71.427,71.427,0,0,1,52.2,133.758a7.456,7.456,0,0,0-.727.585,17.06,17.06,0,0,0-1.563,1.537c.069,2.227.379,4.639.724,7.272,1.556,11.825,5.62,14.475,5.647,23.32.01,3.076-.472,6.08-3.655,14.651-3.262,8.794-7.913,19.5-21.38,43.844-.027-.01-.071.007-.1-.007-1.236-.778,2.256-8.011,1.784-8.263-.631-.335-3.658,6.212-21.035,38.581L41.589,270s7.11-24.664,15.532-39.124c15.023-25.816,22.481-28.505,25.094-29.2a31.212,31.212,0,0,1,11.334-.714C101.085,201.916,103.353,205.344,109.867,204.367Z" transform="translate(-11.9 -45.988)" fill="#1886d1" opacity="0.5"/>
    <path id="Контур_69" data-name="Контур 69" d="M99.074,221.729c-1.13-.656,1.238-5.165-.783-7.179-1.341-1.333-3.619-.582-4.032-1.61-.352-.871,1.157-1.7,2.2-3.45,1.857-3.1,1.2-7.3.4-7.526-1.407-.4-3.076,11.647-9.55,12.689a3.546,3.546,0,0,1-2.806-.492c-1.537-1.316-.888-4.693,1.6-11.5,3.235-8.855,6.917-16.212,6.56-16.418-.23-.135-1.678,3.049-5.341,5.689-1.343.967-4.169,3-6.332,2.028-1.637-.739-1.287-2.479-2.775-3.137-2.344-1.035-6.154,1.977-8.255,4.9-2.058,2.863-2.148,5.185-2.762,5.092-.986-.147-1.8-6.33-1.03-12.868.966-8.253,4.093-14.093,3.724-14.265-.335-.159-1.534,5.273-6.335,9.765-3.572,3.345-5.8,3.044-9,6.929-2.466,3-3.548,6.107-3.939,5.933-.506-.225,2.317-5.075.626-10.555-.612-1.984-1.126-1.818-1.385-3.379-.761-4.6,3.54-6.924,2.351-9.418-.969-2.033-4.284-1.436-5.283-3.714-.9-2.048,1.05-4.2.683-4.483-1-.761-16.873,15.434-19.153,14.583-1.184,2.139-14.8,28.04-16.565,31.118l73.829,41.446a298.16,298.16,0,0,0,13.489-30.169C99.174,221.726,99.113,221.753,99.074,221.729Z" transform="translate(-11.9 -1.172)" fill="#0b5089"/>
  </g>
</svg>
