<svg xmlns="http://www.w3.org/2000/svg" width="117.591" height="43.952" viewBox="0 0 117.591 43.952"><g transform="translate(0.703 0.686)"><path d="M140.484,117.354a35.982,35.982,0,0,1-11.708,16.812,29.808,29.808,0,0,1-15.811,6.393,1.153,1.153,0,0,1-.289.024c-.658.054-1.316.081-2,.081h-.264c-.815,0-1.63-.027-2.42-.105h-.078c-.817-.081-1.632-.186-2.42-.316a9.986,9.986,0,0,1-1.211-.237,30.345,30.345,0,0,1-11.97-5.6A35.871,35.871,0,0,1,80.66,118.25c17.994-.448,28.229-17.389,29.542-19.812a14.544,14.544,0,0,1,1.764,2.342,47.645,47.645,0,0,0,7.707,8.077A36.2,36.2,0,0,0,140.484,117.354Z" transform="translate(-52.984 -97.398)" fill="#07355b"/><path d="M69.349,105.207c39.312,31.554,56.956-7.194,56.956-7.194" transform="translate(-69.349 -98.013)" fill="none" stroke="#fff" stroke-linecap="round" stroke-linejoin="round" stroke-width="1"/><path d="M92.882,98.013a44.667,44.667,0,0,0,9.264,10.318c9.976,8.165,24.938,16.332,49.344-2.028" transform="translate(-35.302 -98.013)" fill="none" stroke="#fff" stroke-linecap="round" stroke-linejoin="round" stroke-width="1"/><path d="M92.343,104.4a5.911,5.911,0,0,1,.042,2.868,4.866,4.866,0,0,1-.876,1.586c-.949,1.177-2.036,1.537-3.161.856a40.149,40.149,0,0,1-3.54-2.569c-.139-.108-.7-.653-.825-.781Q88.236,105.59,92.343,104.4Z" transform="translate(-48.178 -88.765)" fill="#fff"/><path d="M98.66,104.151a5.891,5.891,0,0,0-.042,2.87,4.848,4.848,0,0,0,.874,1.583c.952,1.179,2.036,1.537,3.164.856a39.878,39.878,0,0,0,3.54-2.569c.137-.108.7-.653.825-.781Q102.763,105.336,98.66,104.151Z" transform="translate(-27.229 -89.133)" fill="#fff"/><path d="M121.885,116.167a29.808,29.808,0,0,1-15.811,6.393,1.153,1.153,0,0,1-.289.024c-.658.054-1.316.081-2,.081h-.264c-.815,0-1.63-.027-2.42-.105h-.078c-.817-.081-1.632-.186-2.42-.316a9.984,9.984,0,0,1-1.211-.237,30.345,30.345,0,0,1-11.97-5.6,13.989,13.989,0,0,1,16.127-4.6,5.9,5.9,0,0,0,4.446,0,14.275,14.275,0,0,1,4.972-.92A13.934,13.934,0,0,1,121.885,116.167Z" transform="translate(-46.093 -79.399)" fill="#ea8193"/></g></svg>